<svg width="186" height="49" viewBox="0 0 186 49" xmlns="http://www.w3.org/2000/svg">
<path d="M28.0626 22.8378C28.0827 21.2311 28.4959 19.6557 29.2638 18.2583C30.0316 16.8609 31.1293 15.6867 32.4545 14.8452C31.6126 13.6033 30.502 12.5812 29.2107 11.8602C27.9195 11.1392 26.4833 10.7391 25.0162 10.6916C21.8864 10.3522 18.8525 12.6259 17.2575 12.6259C15.632 12.6259 13.1765 10.7253 10.5324 10.7815C8.82214 10.8385 7.1553 11.3522 5.69434 12.2724C4.23338 13.1927 3.02812 14.4881 2.196 16.0325C-1.40845 22.4784 1.28016 31.9513 4.73309 37.1615C6.46057 39.7128 8.47936 42.5626 11.1212 42.4615C13.7062 42.3509 14.6716 40.7589 17.7922 40.7589C20.8838 40.7589 21.7895 42.4615 24.4849 42.3972C27.2588 42.3509 29.0064 39.8347 30.6734 37.2592C31.9145 35.4414 32.8696 33.4322 33.5032 31.3062C31.8917 30.6022 30.5164 29.4237 29.5489 27.9178C28.5814 26.4119 28.0645 24.6451 28.0626 22.8378ZM22.9717 7.26493C24.4841 5.38959 25.2292 2.97917 25.0488 0.545543C22.7381 0.79621 20.6036 1.93688 19.0707 3.74027C18.3212 4.62127 17.7472 5.64621 17.3815 6.75649C17.0157 7.86678 16.8654 9.04063 16.9392 10.2109C18.095 10.2232 19.2384 9.9645 20.2833 9.4542C21.3283 8.9439 22.2475 8.19535 22.9717 7.26493ZM60.7401 36.0028H51.9183L49.7998 42.4639H46.0631L54.4191 18.5593H58.3012L66.6571 42.4639H62.8567L60.7401 36.0028ZM52.8319 33.0212H59.8246L56.3775 22.5353H56.2809L52.8319 33.0212ZM84.7028 33.7507C84.7028 39.1665 81.8962 42.6462 77.6611 42.6462C76.5882 42.7041 75.5212 42.4489 74.5822 41.9096C73.6432 41.3704 72.8703 40.5689 72.3519 39.597H72.2717V48.2294H68.8082V25.0355H72.1608V27.9344H72.2246C72.7668 26.9671 73.5528 26.1698 74.4989 25.6273C75.445 25.0847 76.5158 24.8172 77.5973 24.8532C81.8798 24.8532 84.7028 28.3498 84.7028 33.7506V33.7507ZM81.1427 33.7507C81.1427 30.2222 79.3774 27.9024 76.6837 27.9024C74.0372 27.9024 72.2574 30.2709 72.2574 33.7506C72.2574 37.2623 74.0372 39.6141 76.6837 39.6141C79.3774 39.6141 81.1427 37.3112 81.1427 33.7506V33.7507ZM103.274 33.7507C103.274 39.1665 100.468 42.6462 96.2327 42.6462C95.1599 42.7041 94.0929 42.4488 93.154 41.9096C92.215 41.3703 91.4421 40.5689 90.9237 39.597H90.8436V48.2294H87.38V25.0355H90.7325V27.9344H90.7962C91.3385 26.9671 92.1245 26.1698 93.0705 25.6273C94.0166 25.0847 95.0874 24.8172 96.169 24.8532C100.452 24.8532 103.274 28.3498 103.274 33.7506V33.7507ZM99.7145 33.7507C99.7145 30.2222 97.949 27.9024 95.2554 27.9024C92.6089 27.9024 90.829 30.2709 90.829 33.7506C90.829 37.2623 92.6089 39.6141 95.2554 39.6141C97.949 39.6141 99.7145 37.3112 99.7145 33.7506V33.7507ZM115.549 35.8036C115.806 38.174 118.035 39.7306 121.082 39.7306C124.001 39.7306 126.102 38.174 126.102 36.0365C126.102 34.181 124.835 33.0701 121.835 32.3087L118.836 31.5624C114.586 30.5021 112.613 28.4493 112.613 25.1181C112.613 20.9936 116.093 18.1608 121.034 18.1608C125.925 18.1608 129.278 20.9936 129.39 25.1181H125.894C125.685 22.7327 123.775 21.2926 120.985 21.2926C118.195 21.2926 116.286 22.7496 116.286 24.87C116.286 26.5601 117.505 27.5546 120.488 28.3157L123.038 28.9625C127.787 30.1223 129.76 32.0926 129.76 35.5889C129.76 40.0613 126.311 42.8623 120.825 42.8623C115.692 42.8623 112.227 40.1269 112.003 35.8034L115.549 35.8036ZM137.235 20.9112V25.0355H140.443V27.8685H137.235V37.4766C137.235 38.9692 137.877 39.6647 139.288 39.6647C139.669 39.6579 140.049 39.6302 140.427 39.5819V42.3982C139.793 42.5205 139.148 42.5758 138.503 42.5634C135.087 42.5634 133.755 41.2382 133.755 37.8581V27.8685H131.301V25.0355H133.755V20.9112H137.235ZM142.302 33.7507C142.302 28.267 145.429 24.8213 150.305 24.8213C155.197 24.8213 158.309 28.267 158.309 33.7507C158.309 39.2493 155.213 42.68 150.304 42.68C145.398 42.68 142.302 39.2493 142.302 33.7507ZM154.78 33.7507C154.78 29.9891 153.111 27.7688 150.304 27.7688C147.498 27.7688 145.831 30.0059 145.831 33.7507C145.831 37.5274 147.498 39.7306 150.304 39.7306C153.111 39.7306 154.78 37.5274 154.78 33.7507ZM161.165 25.0355H164.468V28.0019H164.548C164.772 27.0755 165.297 26.2567 166.036 25.6833C166.775 25.1099 167.683 24.8168 168.607 24.8532C169.006 24.8518 169.404 24.8965 169.794 24.9866V28.3328C169.29 28.1738 168.764 28.1008 168.237 28.1167C167.734 28.0956 167.233 28.1872 166.767 28.3853C166.301 28.5833 165.883 28.8831 165.54 29.264C165.197 29.645 164.938 30.0981 164.781 30.5921C164.623 31.0862 164.571 31.6096 164.628 32.1264V42.4639H161.165V25.0355ZM185.763 37.3449C185.297 40.5088 182.314 42.68 178.497 42.68C173.588 42.68 170.542 39.2832 170.542 33.8333C170.542 28.3667 173.605 24.8213 178.351 24.8213C183.02 24.8213 185.955 28.1336 185.955 33.4179V34.6436H174.038V34.8597C173.983 35.5011 174.061 36.1473 174.266 36.7553C174.471 37.3633 174.799 37.9192 175.229 38.3861C175.658 38.853 176.179 39.2203 176.756 39.4634C177.333 39.7066 177.954 39.8201 178.577 39.7964C179.395 39.8756 180.217 39.6798 180.919 39.2381C181.621 38.7965 182.166 38.1324 182.474 37.3449H185.763ZM174.054 32.1434H182.49C182.521 31.5666 182.437 30.9895 182.241 30.4482C182.046 29.9068 181.745 29.413 181.356 28.9976C180.968 28.5823 180.5 28.2544 179.983 28.0345C179.466 27.8146 178.91 27.7075 178.351 27.7199C177.787 27.7165 177.228 27.8284 176.706 28.0493C176.184 28.2702 175.71 28.5957 175.31 29.0069C174.911 29.4182 174.594 29.9071 174.379 30.4454C174.163 30.9837 174.053 31.5608 174.054 32.1434ZM52.3979 0.566141C53.124 0.512308 53.8527 0.625609 54.5313 0.897871C55.2099 1.17013 55.8216 1.59457 56.3221 2.14056C56.8227 2.68655 57.1997 3.34049 57.426 4.05521C57.6522 4.76992 57.7221 5.52759 57.6305 6.27356C57.6305 9.94298 55.7103 12.0524 52.3979 12.0524H48.381V0.565948L52.3979 0.566141ZM50.1083 10.4279H52.205C52.7238 10.4599 53.2431 10.372 53.7249 10.1706C54.2067 9.96922 54.639 9.65939 54.9903 9.26368C55.3416 8.86798 55.603 8.39634 55.7556 7.88312C55.9082 7.36989 55.948 6.82799 55.8722 6.29685C55.9425 5.76781 55.8986 5.22926 55.7437 4.71979C55.5888 4.21032 55.3267 3.74255 54.9763 3.34998C54.6258 2.95742 54.1956 2.64978 53.7165 2.44912C53.2373 2.24845 52.7212 2.15973 52.205 2.1893H50.1083V10.4279ZM59.5816 7.71442C59.5288 7.14478 59.5919 6.57003 59.7668 6.02705C59.9417 5.48406 60.2245 4.98482 60.5971 4.56135C60.9698 4.13788 61.424 3.79953 61.9306 3.568C62.4373 3.33646 62.9852 3.21686 63.5392 3.21686C64.0933 3.21686 64.6412 3.33646 65.1478 3.568C65.6545 3.79953 66.1087 4.13788 66.4813 4.56135C66.854 4.98482 67.1368 5.48406 67.3117 6.02705C67.4866 6.57003 67.5496 7.14478 67.4969 7.71442C67.5508 8.28473 67.4886 8.86038 67.3142 9.40436C67.1398 9.94835 66.8572 10.4486 66.4845 10.8731C66.1117 11.2975 65.6571 11.6366 65.1499 11.8687C64.6427 12.1008 64.094 12.2207 63.5392 12.2207C62.9845 12.2207 62.4358 12.1008 61.9286 11.8687C61.4213 11.6366 60.9667 11.2975 60.594 10.8731C60.2213 10.4486 59.9386 9.94835 59.7643 9.40436C59.5899 8.86038 59.5277 8.28473 59.5816 7.71442ZM65.7934 7.71442C65.7934 5.83543 64.9762 4.73664 63.542 4.73664C62.1023 4.73664 61.2925 5.83543 61.2925 7.71442C61.2925 9.60842 62.1025 10.6987 63.542 10.6987C64.9762 10.6987 65.7934 9.60091 65.7934 7.71442ZM78.0187 12.0522H76.3004L74.566 5.66815H74.435L72.7078 12.0522H71.0061L68.6928 3.38395H70.3726L71.8761 9.99823H71.9998L73.7252 3.38395H75.3141L77.0395 9.99823H77.1705L78.6665 3.38395H80.3228L78.0187 12.0522ZM82.2684 3.38414H83.8628V4.76109H83.9865C84.1965 4.26649 84.5506 3.85186 84.9996 3.57502C85.4485 3.29817 85.9699 3.1729 86.491 3.21667C86.8994 3.18497 87.3094 3.24857 87.6907 3.40276C88.072 3.55695 88.4148 3.79777 88.6938 4.10739C88.9728 4.41701 89.1807 4.78749 89.3022 5.19139C89.4238 5.59529 89.4557 6.02225 89.3958 6.44065V12.052H87.7395V6.87031C87.7395 5.47738 87.1534 4.78457 85.9286 4.78457C85.6513 4.77126 85.3746 4.82001 85.1173 4.92749C84.86 5.03497 84.6282 5.19863 84.4379 5.40726C84.2476 5.6159 84.1032 5.86457 84.0146 6.13623C83.926 6.4079 83.8953 6.69613 83.9247 6.98119V12.0522H82.2684V3.38414ZM92.0349 0.000192761H93.691V12.0522H92.0349V0.000192761ZM95.9934 7.71442C95.9406 7.1447 96.0037 6.56988 96.1786 6.02682C96.3535 5.48376 96.6364 4.98445 97.0091 4.56093C97.3818 4.1374 97.8361 3.799 98.3428 3.56744C98.8495 3.33587 99.3975 3.21625 99.9516 3.21625C100.506 3.21625 101.054 3.33587 101.56 3.56744C102.067 3.799 102.521 4.1374 102.894 4.56093C103.267 4.98445 103.55 5.48376 103.725 6.02682C103.899 6.56988 103.963 7.1447 103.91 7.71442C103.963 8.28464 103.901 8.86014 103.726 9.40395C103.552 9.94777 103.269 10.4479 102.896 10.8721C102.524 11.2963 102.069 11.6353 101.562 11.8673C101.055 12.0993 100.506 12.2192 99.9516 12.2192C99.3969 12.2192 98.8484 12.0993 98.3412 11.8673C97.8341 11.6353 97.3795 11.2963 97.0067 10.8721C96.634 10.4479 96.3512 9.94777 96.1767 9.40395C96.0022 8.86014 95.9398 8.28464 95.9934 7.71442ZM102.205 7.71442C102.205 5.83543 101.388 4.73664 99.9538 4.73664C98.5141 4.73664 97.7043 5.83543 97.7043 7.71442C97.7043 9.60842 98.5143 10.6987 99.9538 10.6987C101.388 10.6987 102.205 9.60091 102.205 7.71442ZM105.653 9.60091C105.653 8.04051 106.778 7.14096 108.775 7.01314L111.048 6.87781V6.12957C111.048 5.21404 110.462 4.69718 109.33 4.69718C108.405 4.69718 107.765 5.04772 107.581 5.66064H105.977C106.146 4.17166 107.502 3.21686 109.406 3.21686C111.51 3.21686 112.697 4.29871 112.697 6.12957V12.0522H111.102V10.8341H110.971C110.705 11.271 110.332 11.6272 109.889 11.8663C109.446 12.1054 108.95 12.2189 108.451 12.195C108.098 12.2329 107.742 12.1941 107.405 12.0811C107.069 11.9681 106.758 11.7834 106.495 11.539C106.231 11.2946 106.02 10.9959 105.875 10.6621C105.73 10.3282 105.655 9.96676 105.653 9.60091ZM111.048 8.86017V8.13542L108.998 8.27074C107.843 8.35063 107.319 8.7568 107.319 9.52083C107.319 10.301 107.974 10.7551 108.875 10.7551C109.139 10.7827 109.405 10.7552 109.659 10.6742C109.912 10.5932 110.147 10.4603 110.35 10.2835C110.553 10.1067 110.719 9.88958 110.839 9.64506C110.959 9.40054 111.03 9.13362 111.048 8.86017ZM114.874 7.71442C114.874 4.97534 116.237 3.24034 118.357 3.24034C118.882 3.21537 119.402 3.34511 119.858 3.61441C120.314 3.88371 120.686 4.28143 120.931 4.76109H121.055V0H122.711V12.052H121.124V10.6824H120.993C120.729 11.1588 120.344 11.5516 119.879 11.8182C119.415 12.0848 118.888 12.215 118.357 12.1948C116.222 12.1948 114.874 10.4597 114.874 7.71422V7.71442ZM116.585 7.71442C116.585 9.55279 117.424 10.6593 118.827 10.6593C120.223 10.6593 121.086 9.537 121.086 7.72173C121.086 5.91532 120.214 4.77707 118.827 4.77707C117.433 4.77707 116.585 5.89087 116.585 7.71442ZM129.563 7.71442C129.51 7.14478 129.574 6.57003 129.748 6.02705C129.923 5.48406 130.206 4.98482 130.579 4.56135C130.951 4.13788 131.406 3.79953 131.912 3.568C132.419 3.33646 132.967 3.21686 133.521 3.21686C134.075 3.21686 134.623 3.33646 135.129 3.568C135.636 3.79953 136.09 4.13788 136.463 4.56135C136.836 4.98482 137.118 5.48406 137.293 6.02705C137.468 6.57003 137.531 7.14478 137.478 7.71442C137.532 8.28473 137.47 8.86038 137.296 9.40436C137.121 9.94835 136.839 10.4486 136.466 10.8731C136.093 11.2975 135.639 11.6366 135.132 11.8687C134.624 12.1008 134.076 12.2207 133.521 12.2207C132.966 12.2207 132.417 12.1008 131.91 11.8687C131.403 11.6366 130.948 11.2975 130.576 10.8731C130.203 10.4486 129.92 9.94835 129.746 9.40436C129.572 8.86038 129.509 8.28473 129.563 7.71442ZM135.775 7.71442C135.775 5.83543 134.958 4.73664 133.524 4.73664C132.084 4.73664 131.274 5.83543 131.274 7.71442C131.274 9.60842 132.084 10.6987 133.524 10.6987C134.958 10.6987 135.775 9.60091 135.775 7.71442ZM139.701 3.38414H141.295V4.76109H141.419C141.629 4.26649 141.983 3.85186 142.432 3.57502C142.881 3.29817 143.402 3.1729 143.923 3.21667C144.332 3.18497 144.742 3.24857 145.123 3.40276C145.504 3.55695 145.847 3.79777 146.126 4.10739C146.405 4.41701 146.613 4.78749 146.735 5.19139C146.856 5.59529 146.888 6.02225 146.828 6.44065V12.052H145.172V6.87031C145.172 5.47738 144.586 4.78457 143.361 4.78457C143.084 4.77126 142.807 4.82001 142.55 4.92749C142.292 5.03497 142.061 5.19863 141.87 5.40726C141.68 5.6159 141.536 5.86457 141.447 6.13623C141.358 6.4079 141.328 6.69613 141.357 6.98119V12.0522H139.701L139.701 3.38414ZM156.187 1.22603V3.4236H158.005V4.86446H156.187V9.3216C156.187 10.2296 156.549 10.6273 157.374 10.6273C157.585 10.6266 157.795 10.6133 158.005 10.5877V12.0127C157.708 12.0677 157.406 12.0969 157.104 12.1001C155.262 12.1001 154.529 11.4308 154.529 9.75972V4.86446H153.197V3.42341H154.529V1.22622L156.187 1.22603ZM160.267 0.000192761H161.909V4.77707H162.04C162.26 4.27785 162.624 3.86089 163.082 3.583C163.54 3.30511 164.07 3.17981 164.599 3.22417C165.005 3.20134 165.411 3.27139 165.788 3.42933C166.165 3.58726 166.504 3.8292 166.78 4.13787C167.056 4.44654 167.263 4.81434 167.385 5.21502C167.508 5.6157 167.543 6.03939 167.489 6.45586V12.0522H165.831V6.87781C165.831 5.49317 165.207 4.79208 164.037 4.79208C163.752 4.76799 163.466 4.80842 163.198 4.91055C162.93 5.01269 162.687 5.17405 162.485 5.38337C162.284 5.59268 162.13 5.84489 162.033 6.12235C161.936 6.3998 161.898 6.69581 161.924 6.98966V12.0522H160.267V0.000192761ZM177.147 9.7116C176.922 10.5038 176.434 11.1892 175.769 11.6476C175.104 12.1061 174.305 12.3085 173.51 12.2195C172.957 12.2346 172.408 12.1252 171.9 11.899C171.392 11.6727 170.938 11.335 170.569 10.9094C170.2 10.4837 169.925 9.98017 169.764 9.43381C169.602 8.88745 169.558 8.31132 169.633 7.74541C169.56 7.17774 169.605 6.60035 169.766 6.05233C169.927 5.50431 170.201 4.99846 170.568 4.56903C170.934 4.1396 171.386 3.79661 171.893 3.56329C172.399 3.32996 172.948 3.21176 173.503 3.21667C175.838 3.21667 177.247 4.86446 177.247 7.58641V8.18335H171.321V8.27921C171.295 8.5973 171.333 8.91749 171.434 9.21923C171.535 9.52097 171.696 9.79761 171.906 10.0314C172.117 10.2652 172.372 10.451 172.656 10.5769C172.94 10.7028 173.247 10.766 173.556 10.7625C173.952 10.8116 174.353 10.7379 174.709 10.5508C175.064 10.3637 175.358 10.0716 175.552 9.7116H177.147ZM171.321 6.91824H175.559C175.58 6.62732 175.542 6.33511 175.447 6.06038C175.352 5.78566 175.202 5.53449 175.008 5.32301C174.813 5.11154 174.578 4.94444 174.317 4.83245C174.057 4.72046 173.776 4.66606 173.494 4.67273C173.207 4.66901 172.923 4.72455 172.658 4.83609C172.392 4.94763 172.151 5.11291 171.949 5.32219C171.746 5.53146 171.586 5.78049 171.478 6.05461C171.37 6.32872 171.317 6.62237 171.321 6.91824Z" fill="white"/>
</svg>
