<svg width="69" height="65" viewBox="0 0 69 65" fill="none" xmlns="http://www.w3.org/2000/svg">
<path fill-rule="evenodd" clip-rule="evenodd" d="M18.4495 0.180393C19.4802 -0.323797 20.316 0.322314 20.316 1.62676V53.4897C20.316 54.7929 19.4856 56.255 18.4495 56.7619L1.95579 64.8284C0.924608 65.3326 0.0888672 64.6865 0.0888672 63.382V11.5191C0.0888672 10.2164 0.919607 8.75377 1.95579 8.24724L18.4495 0.180393ZM66.9951 0.171325C68.0263 -0.332865 68.862 0.313246 68.862 1.61769V53.4807C68.862 54.7834 68.0313 56.246 66.9951 56.7525L50.5014 64.8195C49.4707 65.3236 48.6349 64.6775 48.6349 63.3731V11.5101C48.6349 10.207 49.4653 8.74482 50.5014 8.23793L66.9951 0.171325ZM26.2281 0.171325C25.1973 -0.332865 24.3616 0.313246 24.3616 1.61769V53.4807C24.3616 54.7834 25.1923 56.246 26.2281 56.7525L42.7228 64.8195C43.7536 65.3236 44.5893 64.6775 44.5893 63.3731V11.5101C44.5893 10.207 43.7586 8.74482 42.7228 8.23793L26.2281 0.171325Z" fill="#EBEBEA"/>
</svg>
