<svg width="198" height="47" viewBox="0 0 198 47" fill="none" xmlns="http://www.w3.org/2000/svg">
<path d="M64.2964 5.93502C64.2964 7.36472 63.8737 8.50322 63.0271 9.35251C62.0655 10.3624 60.8122 10.8677 59.2716 10.8677C57.7962 10.8677 56.5417 10.3558 55.5101 9.3305C54.4767 8.30597 53.9609 7.03548 53.9609 5.51966C53.9609 4.00314 54.4767 2.73342 55.5101 1.70804C56.5417 0.683587 57.7962 0.170898 59.2716 0.170898C60.0037 0.170898 60.7046 0.314313 61.37 0.600299C62.0355 0.886975 62.5693 1.26752 62.9686 1.74409L62.0701 2.64461C61.3933 1.83474 60.4616 1.43011 59.2716 1.43011C58.1956 1.43011 57.2651 1.80882 56.4799 2.56669C55.6945 3.32533 55.3019 4.30914 55.3019 5.51966C55.3019 6.73024 55.6945 7.71398 56.4799 8.47269C57.2651 9.23057 58.1955 9.6092 59.2716 9.6092C60.4131 9.6092 61.3647 9.2285 62.1267 8.46602C62.6213 7.96929 62.9073 7.27883 62.9838 6.39218H59.2715V5.16235H64.2251C64.2729 5.42977 64.2962 5.68638 64.2962 5.93502" fill="white"/>
<path d="M64.2967 5.93477H64.1263C64.1249 7.33187 63.7175 8.41699 62.9069 9.23162L62.9051 9.233L62.9044 9.23438C61.9733 10.2094 60.7765 10.6948 59.2718 10.6968C57.8358 10.6948 56.6338 10.2042 55.6302 9.20961C54.6287 8.21307 54.1335 6.99649 54.1316 5.5194C54.1335 4.04161 54.6287 2.82573 55.6302 1.82988C56.6338 0.834646 57.8358 0.343354 59.2718 0.341283C59.982 0.341283 60.6582 0.480097 61.303 0.756649C61.9486 1.03535 62.4585 1.40056 62.8384 1.85396L62.9689 1.74383L62.8485 1.6232L61.9499 2.52433L62.0703 2.64436L62.2016 2.53515C61.4933 1.68516 60.4992 1.25668 59.2719 1.25921C58.156 1.25783 57.1743 1.65725 56.3623 2.44388C55.5424 3.23305 55.1305 4.27223 55.1319 5.5194C55.1305 6.76665 55.5424 7.80575 56.3623 8.59499C57.1743 9.38163 58.156 9.78096 59.2718 9.77958C60.4511 9.78166 61.4562 9.38094 62.2474 8.5864C62.7758 8.05569 63.0754 7.3206 63.1539 6.40658L63.1698 6.22129H59.4422V5.33273H64.2254V5.16209L64.0576 5.19208C64.1042 5.45084 64.1262 5.69671 64.1262 5.93477H64.467C64.467 5.67539 64.443 5.40881 64.393 5.13157L64.3678 4.99145H59.1016V6.56257H62.9841V6.39193L62.8145 6.37728C62.7393 7.23593 62.4664 7.88252 62.0065 8.34521C61.2745 9.0757 60.3761 9.43623 59.2719 9.4383C58.2358 9.43692 57.3567 9.07961 56.5986 8.34973C55.848 7.62246 55.4746 6.69394 55.4726 5.5194C55.4746 4.34486 55.848 3.41634 56.5986 2.68907C57.3567 1.95919 58.2357 1.60188 59.2719 1.6005C60.424 1.60326 61.2939 1.98449 61.9401 2.75441L62.0599 2.89706L63.0894 1.86455L63.1999 1.75396L63.0993 1.63447C62.6807 1.13467 62.123 0.737936 61.4376 0.443438C60.7508 0.148018 60.026 2.38497e-06 59.2719 2.38497e-06C57.7573 -0.00130139 56.4502 0.531941 55.3901 1.58723C54.3259 2.64044 53.7896 3.96431 53.791 5.5194C53.7896 7.0738 54.3259 8.39843 55.3907 9.45226C56.4502 10.5069 57.7573 11.0395 59.2719 11.0381C60.8492 11.0395 62.1577 10.5148 63.1506 9.47021L63.0274 9.35226L63.1479 9.47297C64.0304 8.5897 64.4682 7.39652 64.4671 5.93477H64.2966M72.1496 1.65786H67.4943V4.90425H71.6925V6.13455H67.4943V9.38094H72.1496V10.6388H66.182V0.40003H72.1496V1.65786" fill="white"/>
<path d="M72.1496 1.65797V1.48732H67.3241V5.07499H71.5221V5.96355L67.324 5.96401V9.55168H71.9792V10.4682H66.3525V0.570773H71.9792V1.65797H72.1496V1.48732V1.65797H72.32V0.229492H66.0117V10.8095H72.32V9.2104H67.6648V6.30529H71.8629V4.73371H67.6648V1.8286H72.32V1.65797H72.1496M77.6887 10.6389H76.3743V1.65789H73.5192V0.400056H80.5438V1.65789H77.6887V10.6388" fill="white"/>
<path d="M77.6884 10.6389V10.4682H76.5444V1.48732H73.6894V0.57085H80.3731V1.48732H77.5181V10.6389H77.6884V10.4682V10.6389H77.8588V1.8286H80.7139V0.229492H73.3486V1.82853H76.2037V10.8094H77.8588V10.6388H77.6884M85.626 10.6389V0.400056H86.9391V10.6388H85.626" fill="white"/>
<path d="M85.6264 10.6389H85.7968V0.570773H86.769V10.4682H85.6264V10.6389H85.7968H85.6264V10.8095H87.1098V0.229492H85.4561V10.8095H85.6264V10.6389M92.7659 10.6389H91.4516V1.65789H88.5966V0.400056H95.621V1.65789H92.7659V10.6388" fill="white"/>
<path d="M92.7654 10.6391V10.4684H91.6214V1.48748H88.7665V0.571002H95.4501V1.48748H92.5951V10.639H92.7654V10.4684V10.639H92.9358V1.82876H95.7909V0.229644H88.4258V1.82868H91.2807V10.8096H92.9358V10.6389H92.7654M102.393 8.45874C103.149 9.22589 104.075 9.60912 105.17 9.60912C106.265 9.60912 107.191 9.22589 107.946 8.45874C108.704 7.69151 109.083 6.71076 109.083 5.51966C109.083 4.32862 108.704 3.34788 107.946 2.58065C107.191 1.81342 106.265 1.43011 105.17 1.43011C104.075 1.43011 103.149 1.81342 102.393 2.58065C101.637 3.34788 101.258 4.32855 101.258 5.51966C101.258 6.71076 101.637 7.69151 102.393 8.45874ZM108.918 9.31585C107.913 10.351 106.663 10.8677 105.17 10.8677C103.675 10.8677 102.426 10.351 101.423 9.31585C100.417 8.28189 99.9171 7.01623 99.9171 5.51966C99.9171 4.02308 100.417 2.75719 101.423 1.72346C102.426 0.688111 103.675 0.170898 105.17 0.170898C106.655 0.170898 107.902 0.690872 108.911 1.73013C109.92 2.76931 110.424 4.03244 110.424 5.51966C110.424 7.01623 109.921 8.28189 108.918 9.31585Z" fill="white"/>
<path d="M102.393 8.45848L102.272 8.57843C103.057 9.37634 104.036 9.78166 105.17 9.77959C106.304 9.78166 107.285 9.37634 108.068 8.57843C108.858 7.77976 109.255 6.74656 109.254 5.5194C109.255 4.29232 108.858 3.25905 108.068 2.46037C107.285 1.66247 106.304 1.25722 105.17 1.25922C104.036 1.25722 103.057 1.66247 102.272 2.46037C101.484 3.25905 101.086 4.29232 101.088 5.5194C101.086 6.74648 101.484 7.77976 102.272 8.57843L102.393 8.45848L102.514 8.33846C101.792 7.60183 101.43 6.67523 101.429 5.5194C101.43 4.36365 101.792 3.43705 102.514 2.70034C103.244 1.96387 104.115 1.60257 105.17 1.60057C106.225 1.60257 107.098 1.96387 107.826 2.70034C108.55 3.43705 108.911 4.36365 108.912 5.5194C108.911 6.67516 108.55 7.60183 107.826 8.33846C107.098 9.07502 106.225 9.43624 105.17 9.43823C104.115 9.43624 103.244 9.07502 102.514 8.33846L102.393 8.45848ZM108.918 9.3156L108.797 9.19703C107.82 10.1996 106.625 10.6948 105.17 10.6968C103.715 10.6948 102.52 10.1996 101.545 9.19703L101.541 9.19167L101.545 9.19703C100.57 8.19106 100.089 6.97794 100.088 5.5194C100.089 4.06087 100.57 2.84775 101.545 1.84185C102.52 0.839249 103.715 0.343357 105.17 0.341363C106.616 0.343357 107.808 0.84132 108.79 1.84913C109.768 2.85971 110.252 4.07091 110.254 5.5194C110.252 6.97794 109.77 8.19106 108.797 9.19703L108.918 9.3156L109.041 9.43417C110.074 8.37175 110.596 7.05386 110.595 5.5194C110.596 3.99368 110.072 2.67849 109.034 1.61131C107.996 0.539919 106.696 -0.00183592 105.17 4.69618e-06C103.637 -0.00183592 102.333 0.537389 101.301 1.60464V1.60387C100.266 2.66706 99.7457 3.98494 99.7471 5.5194C99.7457 7.05386 100.266 8.37175 101.301 9.43486L101.306 9.43969L101.301 9.43417C102.333 10.5014 103.637 11.0395 105.17 11.0381C106.703 11.0395 108.007 10.5014 109.041 9.43417L108.918 9.3156V9.3156ZM112.268 10.6388V0.399955H113.867L118.834 8.365H118.891L118.834 6.39185V0.399955H120.149V10.6387H118.778L113.58 2.28766H113.524L113.58 4.26149V10.6387H112.268" fill="white"/>
<path d="M112.268 10.639H112.438V0.570773H113.772L118.74 8.53582H119.066L119.005 6.3895V0.57085H119.978V10.4682H118.872L113.675 2.1172H113.349L113.41 4.26443V10.4682H112.268V10.6389H112.438H112.268V10.8095H113.75V4.25899L113.694 2.28324L113.523 2.28784V2.45848H113.58V2.28784L113.436 2.37857L118.683 10.8095H120.319V0.229492H118.664V6.39403L118.72 8.36978L118.891 8.36517V8.19453H118.834V8.36517L118.979 8.2746L113.961 0.229492H112.097V10.8095H112.268V10.6389M165.697 39.6487H168.876V18.3159H165.697L165.697 39.6487ZM194.331 26.0005L190.687 35.2493H190.578L186.796 26.0004H183.371L189.043 38.9274L185.809 46.1179H189.126L197.866 26.0004L194.331 26.0005ZM176.302 37.2257C175.26 37.2257 173.808 36.7044 173.808 35.414C173.808 33.7674 175.618 33.1362 177.178 33.1362C178.577 33.1362 179.233 33.4381 180.083 33.8502C179.836 35.8259 178.137 37.2257 176.302 37.2257V37.2257ZM176.686 25.5338C174.384 25.5338 172.001 26.5496 171.014 28.8001L173.835 29.9799C174.439 28.8001 175.561 28.4154 176.74 28.4154C178.384 28.4154 180.056 29.404 180.083 31.1605V31.3798C179.507 31.0504 178.275 30.5565 176.768 30.5565C173.726 30.5565 170.629 32.2302 170.629 35.3592C170.629 38.2136 173.123 40.0526 175.917 40.0526C178.056 40.0526 179.233 39.0921 179.974 37.967H180.083V39.6134H183.151V31.4343C183.151 27.6476 180.33 25.5338 176.686 25.5338V25.5338ZM157.039 28.5973H152.517V21.285H157.039C159.415 21.285 160.765 23.256 160.765 24.9411C160.765 26.5943 159.415 28.5973 157.039 28.5973ZM156.957 18.3159H149.34V39.6487H152.517V31.5664H156.957C160.48 31.5664 163.944 29.0113 163.944 24.9411C163.944 20.871 160.48 18.3159 156.957 18.3159V18.3159ZM115.419 37.2297C113.223 37.2297 111.384 35.3879 111.384 32.8582C111.384 30.302 113.223 28.4321 115.419 28.4321C117.587 28.4321 119.289 30.3019 119.289 32.8582C119.289 35.3879 117.587 37.2297 115.419 37.2297H115.419ZM119.069 27.195H118.959C118.246 26.3429 116.873 25.5732 115.144 25.5732C111.521 25.5732 108.2 28.7621 108.2 32.8582C108.2 36.9271 111.521 40.0887 115.144 40.0887C116.873 40.0887 118.246 39.3187 118.959 38.4395H119.069V39.484C119.069 42.2611 117.587 43.7456 115.199 43.7456C113.251 43.7456 112.043 42.343 111.548 41.1611L108.777 42.3157C109.572 44.2401 111.686 46.6046 115.199 46.6046C118.932 46.6046 122.089 44.4048 122.089 39.0441V26.0131H119.069V27.195ZM124.284 39.6487H127.468V18.3152H124.284V39.6487ZM132.162 32.6109C132.079 29.8065 134.33 28.3774 135.949 28.3774C137.213 28.3774 138.283 29.0093 138.639 29.9173L132.162 32.6109ZM142.043 30.1918C141.439 28.5693 139.6 25.5732 135.839 25.5732C132.107 25.5732 129.005 28.5147 129.005 32.8309C129.005 36.8998 132.079 40.0887 136.196 40.0887C139.518 40.0887 141.44 38.0542 142.235 36.8723L139.765 35.2225C138.942 36.4324 137.816 37.2297 136.196 37.2297C134.577 37.2297 133.424 36.4871 132.683 35.0305L142.371 31.0164L142.043 30.1918ZM64.8509 27.8001V30.8791H72.2066C71.987 32.6109 71.4106 33.8754 70.5322 34.7553C69.4621 35.8278 67.7877 37.0097 64.8508 37.0097C60.3219 37.0097 56.7815 33.3534 56.7815 28.8173C56.7815 24.2812 60.3219 20.6245 64.8509 20.6245C67.2938 20.6245 69.0774 21.5869 70.3951 22.824L72.5634 20.6524C70.7246 18.8925 68.2815 17.5455 64.8509 17.5455C58.6475 17.5455 53.4326 22.6041 53.4326 28.8173C53.4326 35.0305 58.6475 40.0887 64.8509 40.0887C68.1997 40.0887 70.7246 38.9895 72.7005 36.9271C74.7317 34.8926 75.3633 32.0337 75.3633 29.7246C75.3633 29.0093 75.3086 28.3501 75.1981 27.8001H64.8509ZM83.726 37.2297C81.5298 37.2297 79.6358 35.4151 79.6358 32.8309C79.6358 30.2191 81.5298 28.4321 83.726 28.4321C85.9214 28.4321 87.8154 30.2191 87.8154 32.8309C87.8154 35.4152 85.9214 37.2297 83.726 37.2297ZM83.726 25.5732C79.7182 25.5732 76.4519 28.6246 76.4519 32.8309C76.4519 37.0097 79.7182 40.0887 83.726 40.0887C87.733 40.0887 90.9993 37.0097 90.9993 32.8309C90.9993 28.6246 87.733 25.5732 83.726 25.5732ZM99.5929 37.2297C97.3976 37.2297 95.5034 35.4151 95.5034 32.8309C95.5034 30.2191 97.3976 28.4321 99.593 28.4321C101.789 28.4321 103.683 30.2191 103.683 32.8309C103.683 35.4152 101.789 37.2297 99.593 37.2297H99.5929ZM99.5929 25.5732C95.5854 25.5732 92.3197 28.6246 92.3197 32.8309C92.3197 37.0097 95.5854 40.0887 99.593 40.0887C103.6 40.0887 106.867 37.0097 106.867 32.8309C106.867 28.6246 103.6 25.5732 99.593 25.5732H99.5929Z" fill="white"/>
<path d="M1.41302 1.4436C0.841281 1.96027 0.5 2.82207 0.5 3.96601V3.7074V41.4562V41.2075C0.5 42.264 0.792735 43.0798 1.28847 43.6052L1.41502 43.7266V43.7271C1.81627 44.0898 2.3308 44.2823 2.92049 44.2817C3.49668 44.2817 4.14496 44.0978 4.82913 43.7092L29.5587 29.6356L38.0532 24.8008C39.132 24.187 39.7377 23.395 39.8389 22.5884V22.5851C39.7377 21.7766 39.132 20.9853 38.0533 20.3714L29.5581 15.5372L4.82921 1.46354C4.14358 1.07432 3.49484 0.889648 2.91711 0.889648C2.32812 0.889648 1.81428 1.08161 1.41318 1.4436H1.41302Z" fill="#00C1FF"/>
<path d="M1.41509 43.7266L1.28847 43.6052C0.792735 43.0799 0.5 42.264 0.5 41.2075V41.4562V3.71676V3.96601C0.5 2.82207 0.841281 1.96028 1.41302 1.4436L22.5216 22.5858L1.41509 43.7266Z" fill="url(#paint0_linear_1046_2125)"/>
<path d="M29.5586 29.6348L22.5215 22.585L29.558 15.5365L38.0531 20.3706C39.1319 20.9846 39.7375 21.7758 39.8388 22.5844V22.5876C39.7375 23.3942 39.1319 24.1862 38.0531 24.8L29.5587 29.6347" fill="url(#paint1_linear_1046_2125)"/>
<path d="M2.92133 44.2812C2.33172 44.2818 1.81719 44.0891 1.41602 43.7265V43.726L22.5225 22.5852L29.5597 29.6349L4.82998 43.7087C4.1458 44.0973 3.49752 44.2812 2.92133 44.2812Z" fill="url(#paint2_linear_1046_2125)"/>
<path d="M22.5217 22.5859L1.41309 1.44376C1.81434 1.08178 2.32818 0.889814 2.9171 0.889814C3.49482 0.889814 4.14364 1.07441 4.82919 1.4637L29.5582 15.5374L22.5217 22.5859" fill="url(#paint3_linear_1046_2125)"/>
<path d="M2.92161 44.5312C2.332 44.5312 1.81678 44.3386 1.41553 43.976L1.41484 43.9766C1.41319 43.975 1.41142 43.9734 1.40955 43.972L1.2998 43.8646C1.29635 43.8613 1.29313 43.8574 1.28906 43.8534L1.4156 43.7267C1.81686 44.0893 2.33131 44.2819 2.92108 44.2812C3.49719 44.2812 4.14547 44.0973 4.82964 43.7087L29.5593 29.6351L29.7177 29.7938L29.5573 29.8851L4.82957 43.958C4.20606 44.312 3.61299 44.4966 3.0773 44.5273C3.02544 44.5299 2.97353 44.5312 2.92161 44.5312" fill="url(#paint4_linear_1046_2125)"/>
<path d="M1.28847 43.8535C0.792735 43.3282 0.5 42.5129 0.5 41.4558V41.2072C0.5 42.2636 0.792735 43.0795 1.28847 43.6049L1.41502 43.7262L1.28847 43.8535" fill="url(#paint5_linear_1046_2125)"/>
<path d="M29.717 29.7939L29.5586 29.6351L38.053 24.8004C39.1319 24.1867 39.7375 23.3947 39.8387 22.588C39.8387 22.884 39.7728 23.18 39.6418 23.4681C39.3775 24.0486 38.8479 24.5972 38.0531 25.0498L29.717 29.7939" fill="url(#paint6_linear_1046_2125)"/>
<path d="M39.8394 22.585C39.7382 21.7764 39.1326 20.9852 38.0538 20.3712L29.5586 15.5371L29.717 15.3783H29.7177L38.0538 20.1225C39.2432 20.7998 39.8387 21.6923 39.8394 22.585" fill="url(#paint7_linear_1046_2125)"/>
<path d="M0.5 3.96582V3.70507C0.5 3.61104 0.502531 3.51909 0.507362 3.42982V3.42575C0.507362 3.42453 0.507362 3.42322 0.507823 3.42184V3.41179C0.55913 2.50184 0.841281 1.79205 1.28847 1.31809L1.41302 1.44333C0.841281 1.96008 0.5 2.82188 0.5 3.96582Z" fill="url(#paint8_linear_1046_2125)"/>
<path d="M29.5586 15.5371L4.82964 1.46329C4.14409 1.07408 3.49535 0.889479 2.91763 0.889479C2.32863 0.889479 1.81479 1.08144 1.41361 1.44343L1.28906 1.31811C1.32796 1.27687 1.36838 1.23709 1.41024 1.19886C1.41154 1.19748 1.41361 1.19609 1.41491 1.19479C1.81295 0.835563 2.32134 0.643603 2.90505 0.640152H2.91763C3.49535 0.640152 4.14409 0.824827 4.82964 1.21419L29.7177 15.3778L29.717 15.3784L29.5586 15.5371" fill="url(#paint9_linear_1046_2125)"/>
<defs>
<linearGradient id="paint0_linear_1046_2125" x1="13.9897" y1="3.31789" x2="-4.20121" y2="21.538" gradientUnits="userSpaceOnUse">
<stop stop-color="#00A0FF"/>
<stop offset="0.00657" stop-color="#00A1FF"/>
<stop offset="0.2601" stop-color="#00BEFF"/>
<stop offset="0.5122" stop-color="#00D2FF"/>
<stop offset="0.7604" stop-color="#00DFFF"/>
<stop offset="1" stop-color="#00E3FF"/>
</linearGradient>
<linearGradient id="paint1_linear_1046_2125" x1="41.1532" y1="22.4632" x2="-0.0713645" y2="22.4632" gradientUnits="userSpaceOnUse">
<stop stop-color="#FFE000"/>
<stop offset="0.4087" stop-color="#FFBD00"/>
<stop offset="0.7754" stop-color="#FFA500"/>
<stop offset="1" stop-color="#FF9C00"/>
</linearGradient>
<linearGradient id="paint2_linear_1046_2125" x1="25.8236" y1="29.2878" x2="-5.00222" y2="59.9377" gradientUnits="userSpaceOnUse">
<stop stop-color="#FF3A44"/>
<stop offset="1" stop-color="#C31162"/>
</linearGradient>
<linearGradient id="paint3_linear_1046_2125" x1="-4.0272" y1="-1.69066" x2="9.71116" y2="11.9903" gradientUnits="userSpaceOnUse">
<stop stop-color="#32A071"/>
<stop offset="0.0685" stop-color="#2DA771"/>
<stop offset="0.4762" stop-color="#15CF74"/>
<stop offset="0.8009" stop-color="#06E775"/>
<stop offset="1" stop-color="#00F076"/>
</linearGradient>
<linearGradient id="paint4_linear_1046_2125" x1="25.8078" y1="34.178" x2="1.12101" y2="58.9048" gradientUnits="userSpaceOnUse">
<stop stop-color="#CC2E36"/>
<stop offset="1" stop-color="#9C0E4E"/>
</linearGradient>
<linearGradient id="paint5_linear_1046_2125" x1="3.31198" y1="3.31748" x2="-12.7139" y2="19.3694" gradientUnits="userSpaceOnUse">
<stop stop-color="#008DE0"/>
<stop offset="0.00657" stop-color="#008DE0"/>
<stop offset="0.2601" stop-color="#00A7E0"/>
<stop offset="0.5122" stop-color="#00B8E0"/>
<stop offset="0.7604" stop-color="#00C4E0"/>
<stop offset="1" stop-color="#00C7E0"/>
</linearGradient>
<linearGradient id="paint6_linear_1046_2125" x1="41.1532" y1="22.5864" x2="-0.0714242" y2="22.5864" gradientUnits="userSpaceOnUse">
<stop stop-color="#E0C500"/>
<stop offset="0.4087" stop-color="#E0A600"/>
<stop offset="0.7754" stop-color="#E09100"/>
<stop offset="1" stop-color="#E08900"/>
</linearGradient>
<linearGradient id="paint7_linear_1046_2125" x1="41.1539" y1="22.5866" x2="-0.070603" y2="22.5866" gradientUnits="userSpaceOnUse">
<stop stop-color="#FFE840"/>
<stop offset="0.4087" stop-color="#FFCE40"/>
<stop offset="0.7754" stop-color="#FFBC40"/>
<stop offset="1" stop-color="#FFB540"/>
</linearGradient>
<linearGradient id="paint8_linear_1046_2125" x1="3.29458" y1="3.34669" x2="-12.1412" y2="18.1376" gradientUnits="userSpaceOnUse">
<stop stop-color="#40B8FF"/>
<stop offset="0.00657" stop-color="#40B9FF"/>
<stop offset="0.2601" stop-color="#40CEFF"/>
<stop offset="0.5122" stop-color="#40DDFF"/>
<stop offset="0.7604" stop-color="#40E7FF"/>
<stop offset="1" stop-color="#40EAFF"/>
</linearGradient>
<linearGradient id="paint9_linear_1046_2125" x1="-4.05751" y1="2.78017" x2="6.96626" y2="13.8219" gradientUnits="userSpaceOnUse">
<stop stop-color="#65B895"/>
<stop offset="0.0685" stop-color="#62BD95"/>
<stop offset="0.4762" stop-color="#50DB97"/>
<stop offset="0.8009" stop-color="#44ED98"/>
<stop offset="1" stop-color="#40F498"/>
</linearGradient>
</defs>
</svg>
