<svg width="129" height="31" viewBox="0 0 129 31" fill="none" xmlns="http://www.w3.org/2000/svg">
<path d="M41.6287 4.2953C41.6287 5.22697 41.3533 5.96888 40.8016 6.52233C40.1749 7.18043 39.3583 7.50973 38.3543 7.50973C37.3928 7.50973 36.5753 7.17613 35.9031 6.50798C35.2297 5.84034 34.8936 5.01242 34.8936 4.02462C34.8936 3.03637 35.2297 2.20895 35.9031 1.54075C36.5753 0.87316 37.3928 0.539062 38.3543 0.539062C38.8314 0.539062 39.2881 0.63252 39.7217 0.818885C40.1554 1.0057 40.5032 1.25368 40.7635 1.56424L40.1779 2.15108C39.7369 1.62332 39.1298 1.35964 38.3543 1.35964C37.6531 1.35964 37.0468 1.60642 36.5351 2.1003C36.0232 2.59467 35.7674 3.23578 35.7674 4.02462C35.7674 4.81351 36.0232 5.45456 36.5351 5.94899C37.0468 6.44286 37.653 6.6896 38.3543 6.6896C39.0981 6.6896 39.7183 6.44151 40.2148 5.94464C40.5371 5.62094 40.7235 5.17099 40.7734 4.59321H38.3542V3.79178H41.5822C41.6134 3.96605 41.6286 4.13327 41.6286 4.2953" fill="white"/>
<path d="M41.6283 4.29517H41.5173C41.5164 5.2056 41.2509 5.91273 40.7227 6.44359L40.7215 6.44448L40.721 6.44538C40.1143 7.08079 39.3344 7.39705 38.3538 7.3984C37.4181 7.39705 36.6348 7.07734 35.9807 6.42924C35.3281 5.77984 35.0054 4.98705 35.0042 4.02449C35.0054 3.06148 35.3281 2.26914 35.9807 1.62019C36.6348 0.971637 37.4181 0.651483 38.3538 0.650134C38.8166 0.650134 39.2573 0.740593 39.6775 0.92081C40.0981 1.10243 40.4304 1.34042 40.678 1.63588L40.763 1.56412L40.6846 1.4855L40.099 2.07273L40.1775 2.15095L40.263 2.07978C39.8015 1.52588 39.1537 1.24666 38.3539 1.24831C37.6267 1.24741 36.987 1.50769 36.4578 2.02031C35.9236 2.53457 35.6551 3.21176 35.656 4.02449C35.6551 4.83727 35.9236 5.51441 36.4578 6.02872C36.987 6.54134 37.6267 6.80157 38.3538 6.80067C39.1223 6.80202 39.7773 6.54089 40.2929 6.02313C40.6372 5.67728 40.8325 5.19825 40.8836 4.60263L40.894 4.48188H38.4649V3.90285H41.5819V3.79165L41.4725 3.81119C41.5029 3.97981 41.5172 4.14004 41.5172 4.29517H41.7393C41.7393 4.12614 41.7237 3.95242 41.6911 3.77176L41.6747 3.68045H38.2429V4.70428H40.773V4.59308L40.6624 4.58354C40.6135 5.14308 40.4356 5.56444 40.1359 5.86595C39.6589 6.34198 39.0734 6.57692 38.3539 6.57827C37.6787 6.57737 37.1058 6.34453 36.6118 5.8689C36.1227 5.39496 35.8793 4.78989 35.8781 4.02449C35.8793 3.25909 36.1227 2.65402 36.6118 2.18008C37.1058 1.70445 37.6787 1.47161 38.3539 1.47071C39.1046 1.47251 39.6715 1.72094 40.0926 2.22266L40.1707 2.31562L40.8416 1.64278L40.9136 1.57071L40.8481 1.49285C40.5753 1.16715 40.2118 0.908616 39.7651 0.716704C39.3176 0.524192 38.8453 0.427736 38.3539 0.427736C37.3669 0.426886 36.5151 0.774377 35.8243 1.46206C35.1308 2.1484 34.7813 3.0111 34.7822 4.02449C34.7813 5.03743 35.1308 5.90063 35.8247 6.58737C36.5151 7.2746 37.3669 7.6217 38.3539 7.6208C39.3818 7.6217 40.2344 7.27975 40.8815 6.59906L40.8012 6.5222L40.8797 6.60086C41.4548 6.02528 41.7401 5.24773 41.7393 4.29517H41.6283M46.7457 1.50809H43.7121V3.62362H46.4478V4.42536H43.7121V6.54089H46.7457V7.36057H42.8569V0.688417H46.7457V1.50809Z" fill="white"/>
<path d="M46.7459 1.509V1.3978H43.6013V3.73573H46.337V4.31477L43.6013 4.31507V6.653H46.6349V7.25027H42.9681V0.800523H46.6349V1.509H46.7459V1.3978V1.509H46.8569V0.578125H42.7461V7.47267H46.8569V6.4306H43.8233V4.53746H46.5591V3.51333H43.8233V1.6202H46.8569V1.509H46.7459ZM50.3555 7.36152H49.499V1.50895H47.6384V0.689274H52.216V1.50895H50.3555V7.36142" fill="white"/>
<path d="M50.3554 7.36152V7.25027H49.6099V1.3978H47.7494V0.800574H52.1049V1.3978H50.2444V7.36147H50.3554V7.25027V7.36147H50.4664V1.6202H52.3269V0.578125H47.5273V1.62015H49.3878V7.47262H50.4664V7.36142H50.3554M55.528 7.36152V0.689274H56.3836V7.36142H55.528" fill="white"/>
<path d="M55.529 7.36152H55.64V0.800523H56.2736V7.25027H55.529V7.36147H55.64H55.529V7.47267H56.4956V0.578125H55.418V7.47267H55.529V7.36147M60.1815 7.36152H59.325V1.50895H57.4645V0.689274H62.042V1.50895H60.1815V7.36142" fill="white"/>
<path d="M60.1805 7.36074V7.24949H59.435V1.39702H57.5746V0.799793H61.93V1.39702H60.0695V7.36069H60.1805V7.24949V7.36069H60.2915V1.61942H62.152V0.577345H57.3525V1.61937H59.2129V7.47184H60.2915V7.36064H60.1805M66.4542 5.93989C66.9473 6.43981 67.5506 6.68955 68.264 6.68955C68.9774 6.68955 69.581 6.43981 70.0733 5.93989C70.5668 5.43992 70.8141 4.80081 70.8141 4.02462C70.8141 3.24847 70.5668 2.60937 70.0733 2.10939C69.581 1.60942 68.9774 1.35964 68.264 1.35964C67.5506 1.35964 66.9473 1.60942 66.4542 2.10939C65.962 2.60937 65.7148 3.24842 65.7148 4.02462C65.7148 4.80081 65.962 5.43992 66.4542 5.93989ZM70.7065 6.49844C70.0516 7.17298 69.2372 7.50973 68.264 7.50973C67.2899 7.50973 66.4758 7.17298 65.8224 6.49844C65.167 5.82465 64.8409 4.99987 64.8409 4.02462C64.8409 3.04936 65.167 2.22444 65.8224 1.5508C66.4759 0.876108 67.2899 0.539062 68.264 0.539062C69.232 0.539062 70.0442 0.877907 70.7022 1.55515C71.3592 2.23234 71.6879 3.05546 71.6879 4.02462C71.6879 4.99987 71.36 5.82465 70.7065 6.49844Z" fill="white"/>
<path d="M66.4548 5.93977L66.3758 6.01793C66.8872 6.53789 67.5251 6.80202 68.2646 6.80067C69.0035 6.80202 69.6423 6.53789 70.1528 6.01793C70.6676 5.49747 70.9264 4.82418 70.9256 4.02449C70.9264 3.22486 70.6676 2.55152 70.1528 2.03105C69.6423 1.51109 69.0035 1.24701 68.2646 1.24831C67.5251 1.24701 66.8872 1.51109 66.3758 2.03105C65.8624 2.55152 65.603 3.22486 65.6043 4.02449C65.603 4.82413 65.8624 5.49747 66.3758 6.01793L66.4548 5.93977L66.5337 5.86155C66.0628 5.38152 65.8273 4.7777 65.8264 4.02449C65.8273 3.27134 66.0628 2.66751 66.5337 2.18743C67.009 1.7075 67.5767 1.47206 68.2646 1.47076C68.9519 1.47206 69.5209 1.7075 69.995 2.18743C70.4668 2.66751 70.7023 3.27134 70.7031 4.02449C70.7023 4.77765 70.4668 5.38152 69.995 5.86155C69.5209 6.34153 68.9519 6.57693 68.2646 6.57823C67.5767 6.57693 67.009 6.34153 66.5337 5.86155L66.4548 5.93977ZM70.707 6.49831L70.6277 6.42105C69.9911 7.07435 69.2126 7.3971 68.2646 7.3984C67.3161 7.39705 66.5376 7.07435 65.9022 6.42105L65.8992 6.41755L65.9022 6.42105C65.2669 5.7655 64.9534 4.97496 64.9525 4.02449C64.9534 3.07403 65.2669 2.28349 65.9022 1.62799C66.5376 0.974637 67.316 0.651485 68.2646 0.650186C69.2065 0.651485 69.9832 0.975986 70.6233 1.63274C71.2608 2.29129 71.5761 3.08057 71.5775 4.02449C71.5761 4.97496 71.2617 5.7655 70.6277 6.42105L70.707 6.49831L70.7869 6.57558C71.4599 5.88324 71.8003 5.02444 71.7995 4.02449C71.8003 3.03025 71.4586 2.17319 70.7825 1.47776C70.106 0.779576 69.2585 0.426538 68.2646 0.427737C67.2654 0.426538 66.4153 0.777928 65.7431 1.47341V1.47291C65.0688 2.16574 64.7296 3.02455 64.7305 4.02449C64.7296 5.02444 65.0688 5.88324 65.7431 6.57603L65.7461 6.57917L65.7431 6.57558C66.4153 7.27106 67.2654 7.6217 68.2646 7.6208C69.2633 7.6217 70.1133 7.27106 70.7869 6.57558L70.707 6.49831ZM72.8897 7.36062V0.688368H73.9315L77.1689 5.87885H77.2058L77.1689 4.59303V0.688368H78.0255V7.36052H77.1321L73.745 1.91851H73.7081L73.745 3.20477V7.36052H72.8898" fill="white"/>
<path d="M72.8891 7.36152H73.0002V0.800523H73.8693L77.1067 5.991H77.3192L77.2793 4.59234V0.800573H77.9138V7.25027H77.193L73.806 1.80826H73.5935L73.6333 3.20752V7.25027H72.8891V7.36147H73.0002H72.8891V7.47267H73.8554V3.20397L73.8185 1.91646L73.7075 1.91946V2.03066H73.7444V1.91946L73.6502 1.97858L77.0698 7.47267H78.1359V0.578125H77.0573V4.59529L77.0941 5.8828L77.2052 5.8798V5.7686H77.1683V5.8798L77.2625 5.82078L73.9923 0.578125H72.7782V7.47267H72.8892V7.36147M107.707 26.2659H109.778V12.3643H107.707L107.707 26.2659ZM126.366 17.372L123.992 23.399H123.92L121.456 17.3719H119.224L122.92 25.7959L120.813 30.4817H122.975L128.67 17.3719L126.366 17.372ZM114.618 24.687C113.938 24.687 112.992 24.3473 112.992 23.5063C112.992 22.4333 114.172 22.022 115.188 22.022C116.1 22.022 116.527 22.2187 117.081 22.4873C116.92 23.7748 115.814 24.687 114.618 24.687ZM114.868 17.0678C113.368 17.0678 111.815 17.7298 111.172 19.1964L113.01 19.9652C113.403 19.1964 114.135 18.9457 114.903 18.9457C115.975 18.9457 117.064 19.5899 117.081 20.7345V20.8774C116.706 20.6628 115.903 20.3409 114.921 20.3409C112.939 20.3409 110.921 21.4316 110.921 23.4707C110.921 25.3308 112.546 26.5292 114.367 26.5292C115.76 26.5292 116.527 25.9032 117.01 25.17H117.081V26.2429H119.081V20.913C119.081 18.4453 117.242 17.0678 114.868 17.0678ZM102.064 19.0642H99.1179V14.2991H102.064C103.613 14.2991 104.493 15.5835 104.493 16.6816C104.493 17.7589 103.613 19.0642 102.064 19.0642ZM102.011 12.3643H97.0473V26.2659H99.1179V20.999H102.011C104.307 20.999 106.564 19.334 106.564 16.6816C106.564 14.0293 104.307 12.3643 102.011 12.3643ZM74.9426 24.6896C73.5114 24.6896 72.3132 23.4893 72.3132 21.8409C72.3132 20.1751 73.5114 18.9566 74.9426 18.9566C76.3556 18.9566 77.4645 20.175 77.4645 21.8409C77.4645 23.4893 76.3556 24.6896 74.9427 24.6896H74.9426ZM77.3214 18.1504H77.2498C76.7849 17.5951 75.8902 17.0935 74.7635 17.0935C72.4025 17.0935 70.2385 19.1716 70.2385 21.8409C70.2385 24.4924 72.4025 26.5527 74.7635 26.5527C75.8902 26.5527 76.7849 26.0509 77.2498 25.4779H77.3214V26.1586C77.3214 27.9684 76.3556 28.9357 74.7995 28.9357C73.5296 28.9357 72.7426 28.0217 72.4203 27.2515L70.6141 28.0039C71.1328 29.258 72.5101 30.7988 74.7995 30.7988C77.232 30.7988 79.289 29.3653 79.289 25.872V17.3802H77.3214V18.1504ZM80.7197 26.2659H82.7945V12.3638H80.7197V26.2659ZM85.8532 21.6797C85.7994 19.8522 87.2662 18.9209 88.3213 18.9209C89.1447 18.9209 89.8419 19.3327 90.0739 19.9244L85.8532 21.6797ZM92.2922 20.1033C91.8992 19.046 90.7001 17.0935 88.2497 17.0935C85.8172 17.0935 83.7963 19.0104 83.7963 21.8231C83.7963 24.4746 85.7994 26.5527 88.4822 26.5527C90.6468 26.5527 91.8992 25.2269 92.4177 24.4567L90.8078 23.3815C90.2716 24.17 89.5377 24.6896 88.4822 24.6896C87.4271 24.6896 86.676 24.2057 86.1928 23.2565L92.5065 20.6407L92.2922 20.1033ZM41.9896 18.5447V20.5511H46.783C46.64 21.6797 46.2643 22.5038 45.6919 23.0771C44.9946 23.776 43.9034 24.5462 41.9896 24.5462C39.0383 24.5462 36.7311 22.1636 36.7311 19.2076C36.7311 16.2516 39.0383 13.8686 41.9896 13.8686C43.5816 13.8686 44.7439 14.4958 45.6025 15.302L47.0155 13.8868C45.8173 12.74 44.2252 11.8622 41.9896 11.8622C37.9472 11.8622 34.5488 15.1587 34.5488 19.2076C34.5488 23.2565 37.9472 26.5527 41.9896 26.5527C44.1719 26.5527 45.8173 25.8364 47.1049 24.4924C48.4285 23.1666 48.8401 21.3035 48.8401 19.7988C48.8401 19.3327 48.8045 18.9031 48.7325 18.5447H41.9896ZM54.2898 24.6896C52.8586 24.6896 51.6243 23.5071 51.6243 21.8231C51.6243 20.1211 52.8586 18.9566 54.2898 18.9566C55.7204 18.9566 56.9546 20.1211 56.9546 21.8231C56.9546 23.5071 55.7204 24.6896 54.2898 24.6896ZM54.2898 17.0935C51.678 17.0935 49.5495 19.082 49.5495 21.8231C49.5495 24.5462 51.678 26.5527 54.2898 26.5527C56.9009 26.5527 59.0294 24.5462 59.0294 21.8231C59.0294 19.082 56.9009 17.0935 54.2898 17.0935ZM64.6295 24.6896C63.1989 24.6896 61.9645 23.5071 61.9645 21.8231C61.9645 20.1211 63.1989 18.9566 64.6296 18.9566C66.0603 18.9566 67.2946 20.1211 67.2946 21.8231C67.2946 23.5071 66.0603 24.6896 64.6296 24.6896H64.6295ZM64.6295 17.0935C62.018 17.0935 59.8899 19.082 59.8899 21.8231C59.8899 24.5462 62.018 26.5527 64.6296 26.5527C67.2408 26.5527 69.3694 24.5462 69.3694 21.8231C69.3694 19.082 67.2408 17.0935 64.6296 17.0935H64.6295Z" fill="white"/>
<path d="M0.649665 1.3688C0.277086 1.70549 0.0546875 2.26709 0.0546875 3.01255V2.84402V27.4433V27.2812C0.0546875 27.9697 0.245451 28.5013 0.568503 28.8437L0.650965 28.9228V28.9231C0.912445 29.1595 1.24774 29.285 1.63202 29.2846C2.0075 29.2846 2.42995 29.1647 2.8758 28.9115L18.991 19.7403L24.5265 16.5897C25.2295 16.1897 25.6242 15.6736 25.6902 15.1479V15.1458C25.6242 14.6189 25.2295 14.1033 24.5266 13.7032L18.9906 10.553L2.87585 1.38179C2.42905 1.12816 2.0063 1.00781 1.62982 1.00781C1.24599 1.00781 0.911146 1.1329 0.649765 1.3688H0.649665Z" fill="#00C1FF"/>
<path d="M0.651015 28.9219L0.568503 28.8428C0.24545 28.5005 0.0546875 27.9688 0.0546875 27.2803V27.4424V2.84919V3.01162C0.0546875 2.26616 0.277086 1.70457 0.649666 1.36787L14.4052 15.1453L0.651015 28.9219Z" fill="url(#paint0_linear_1045_16818)"/>
<path d="M18.9911 19.7383L14.4053 15.1443L18.9907 10.551L24.5266 13.7012C25.2296 14.1013 25.6242 14.6169 25.6902 15.1438V15.1459C25.6242 15.6716 25.2296 16.1877 24.5266 16.5877L18.9911 19.7382" fill="url(#paint1_linear_1045_16818)"/>
<path d="M1.6333 29.2832C1.24907 29.2836 0.913774 29.158 0.652344 28.9217V28.9214L14.4066 15.1448L18.9924 19.7388L2.87708 28.9101C2.43123 29.1633 2.00877 29.2832 1.6333 29.2832Z" fill="url(#paint2_linear_1045_16818)"/>
<path d="M14.406 15.1445L0.650391 1.36708C0.911871 1.13119 1.24672 1.00609 1.63049 1.00609C2.00697 1.00609 2.42978 1.12639 2.87652 1.38007L18.9914 10.5513L14.406 15.1445" fill="url(#paint3_linear_1045_16818)"/>
<path d="M1.6332 29.4453C1.24898 29.4453 0.913229 29.3198 0.651748 29.0835L0.651298 29.0839C0.650223 29.0828 0.64907 29.0818 0.64785 29.0809L0.576333 29.0109C0.574084 29.0087 0.571985 29.0062 0.569336 29.0036L0.651798 28.921C0.913279 29.1573 1.24853 29.2828 1.63285 29.2824C2.00828 29.2824 2.43073 29.1625 2.87658 28.9093L18.9918 19.7381L19.0951 19.8416L18.9905 19.901L2.87653 29.0717C2.47022 29.3024 2.08374 29.4227 1.73465 29.4428C1.70086 29.4444 1.66703 29.4453 1.6332 29.4453" fill="url(#paint4_linear_1045_16818)"/>
<path d="M0.568503 29.0039C0.24545 28.6616 0.0546875 28.1303 0.0546875 27.4414V27.2794C0.0546875 27.9678 0.24545 28.4995 0.568503 28.8419L0.650965 28.9209L0.568503 29.0039Z" fill="url(#paint5_linear_1045_16818)"/>
<path d="M19.0945 19.8437L18.9912 19.7402L24.5267 16.5897C25.2297 16.1897 25.6244 15.6736 25.6903 15.1479C25.6903 15.3409 25.6474 15.5337 25.562 15.7214C25.3898 16.0998 25.0446 16.4572 24.5267 16.7522L19.0945 19.8438" fill="url(#paint6_linear_1045_16818)"/>
<path d="M25.6908 15.1445C25.6248 14.6176 25.2302 14.102 24.5272 13.7019L18.9912 10.5517L19.0945 10.4483H19.0949L24.5272 13.5399C25.3022 13.9812 25.6903 14.5628 25.6908 15.1445Z" fill="url(#paint7_linear_1045_16818)"/>
<path d="M0.0546875 3.01172V2.8418C0.0546875 2.78052 0.0563367 2.7206 0.0594853 2.66243V2.65978C0.0594853 2.65898 0.0594853 2.65813 0.0597852 2.65723V2.65068C0.0932199 2.0577 0.277086 1.59517 0.568503 1.28631L0.649665 1.36792C0.277086 1.70467 0.0546875 2.26626 0.0546875 3.01172Z" fill="url(#paint8_linear_1045_16818)"/>
<path d="M18.9914 10.5527L2.87658 1.38143C2.42984 1.12779 2.00708 1.0075 1.6306 1.0075C1.24678 1.0075 0.911929 1.13259 0.650499 1.36848L0.569336 1.28682C0.594682 1.25994 0.621022 1.23402 0.6483 1.20911C0.649149 1.20821 0.650499 1.20731 0.651348 1.20646C0.91073 0.972363 1.24203 0.847271 1.6224 0.845022H1.6306C2.00708 0.845022 2.42984 0.965367 2.87658 1.2191L19.0951 10.4489L19.0946 10.4493L18.9914 10.5527Z" fill="url(#paint9_linear_1045_16818)"/>
<defs>
<linearGradient id="paint0_linear_1045_16818" x1="8.84532" y1="2.58927" x2="-3.00889" y2="14.4625" gradientUnits="userSpaceOnUse">
<stop stop-color="#00A0FF"/>
<stop offset="0.00657" stop-color="#00A1FF"/>
<stop offset="0.2601" stop-color="#00BEFF"/>
<stop offset="0.5122" stop-color="#00D2FF"/>
<stop offset="0.7604" stop-color="#00DFFF"/>
<stop offset="1" stop-color="#00E3FF"/>
</linearGradient>
<linearGradient id="paint1_linear_1045_16818" x1="26.5467" y1="15.0649" x2="-0.317522" y2="15.0649" gradientUnits="userSpaceOnUse">
<stop stop-color="#FFE000"/>
<stop offset="0.4087" stop-color="#FFBD00"/>
<stop offset="0.7754" stop-color="#FFA500"/>
<stop offset="1" stop-color="#FF9C00"/>
</linearGradient>
<linearGradient id="paint2_linear_1045_16818" x1="16.5577" y1="19.5126" x2="-3.53015" y2="39.4859" gradientUnits="userSpaceOnUse">
<stop stop-color="#FF3A44"/>
<stop offset="1" stop-color="#C31162"/>
</linearGradient>
<linearGradient id="paint3_linear_1045_16818" x1="-2.89481" y1="-0.675492" x2="6.05789" y2="8.23983" gradientUnits="userSpaceOnUse">
<stop stop-color="#32A071"/>
<stop offset="0.0685" stop-color="#2DA771"/>
<stop offset="0.4762" stop-color="#15CF74"/>
<stop offset="0.8009" stop-color="#06E775"/>
<stop offset="1" stop-color="#00F076"/>
</linearGradient>
<linearGradient id="paint4_linear_1045_16818" x1="16.5472" y1="22.6985" x2="0.459818" y2="38.8119" gradientUnits="userSpaceOnUse">
<stop stop-color="#CC2E36"/>
<stop offset="1" stop-color="#9C0E4E"/>
</linearGradient>
<linearGradient id="paint5_linear_1045_16818" x1="1.88713" y1="2.5883" x2="-8.55626" y2="13.0487" gradientUnits="userSpaceOnUse">
<stop stop-color="#008DE0"/>
<stop offset="0.00657" stop-color="#008DE0"/>
<stop offset="0.2601" stop-color="#00A7E0"/>
<stop offset="0.5122" stop-color="#00B8E0"/>
<stop offset="0.7604" stop-color="#00C4E0"/>
<stop offset="1" stop-color="#00C7E0"/>
</linearGradient>
<linearGradient id="paint6_linear_1045_16818" x1="26.5469" y1="15.1469" x2="-0.317406" y2="15.1469" gradientUnits="userSpaceOnUse">
<stop stop-color="#E0C500"/>
<stop offset="0.4087" stop-color="#E0A600"/>
<stop offset="0.7754" stop-color="#E09100"/>
<stop offset="1" stop-color="#E08900"/>
</linearGradient>
<linearGradient id="paint7_linear_1045_16818" x1="26.5474" y1="15.1456" x2="-0.31687" y2="15.1456" gradientUnits="userSpaceOnUse">
<stop stop-color="#FFE840"/>
<stop offset="0.4087" stop-color="#FFCE40"/>
<stop offset="0.7754" stop-color="#FFBC40"/>
<stop offset="1" stop-color="#FFB540"/>
</linearGradient>
<linearGradient id="paint8_linear_1045_16818" x1="1.8758" y1="2.60826" x2="-8.18303" y2="12.2469" gradientUnits="userSpaceOnUse">
<stop stop-color="#40B8FF"/>
<stop offset="0.00657" stop-color="#40B9FF"/>
<stop offset="0.2601" stop-color="#40CEFF"/>
<stop offset="0.5122" stop-color="#40DDFF"/>
<stop offset="0.7604" stop-color="#40E7FF"/>
<stop offset="1" stop-color="#40EAFF"/>
</linearGradient>
<linearGradient id="paint9_linear_1045_16818" x1="-2.9148" y1="2.23958" x2="4.26892" y2="9.43498" gradientUnits="userSpaceOnUse">
<stop stop-color="#65B895"/>
<stop offset="0.0685" stop-color="#62BD95"/>
<stop offset="0.4762" stop-color="#50DB97"/>
<stop offset="0.8009" stop-color="#44ED98"/>
<stop offset="1" stop-color="#40F498"/>
</linearGradient>
</defs>
</svg>
