<svg width="206" height="55" viewBox="0 0 206 55" xmlns="http://www.w3.org/2000/svg">
<g filter="url(#filter0_d_1046_371)">
<path d="M68.2964 5.93502C68.2964 7.36472 67.8737 8.50322 67.0271 9.35251C66.0655 10.3624 64.8122 10.8677 63.2716 10.8677C61.7962 10.8677 60.5417 10.3558 59.5101 9.3305C58.4767 8.30597 57.9609 7.03548 57.9609 5.51966C57.9609 4.00314 58.4767 2.73342 59.5101 1.70804C60.5417 0.683587 61.7962 0.170898 63.2716 0.170898C64.0037 0.170898 64.7046 0.314313 65.37 0.600299C66.0355 0.886975 66.5693 1.26752 66.9686 1.74409L66.0701 2.64461C65.3933 1.83474 64.4616 1.43011 63.2716 1.43011C62.1956 1.43011 61.2651 1.80882 60.4799 2.56669C59.6945 3.32533 59.3019 4.30914 59.3019 5.51966C59.3019 6.73024 59.6945 7.71398 60.4799 8.47269C61.2651 9.23057 62.1955 9.6092 63.2716 9.6092C64.4131 9.6092 65.3647 9.2285 66.1267 8.46602C66.6213 7.96929 66.9073 7.27883 66.9838 6.39218H63.2715V5.16235H68.2251C68.2729 5.42977 68.2962 5.68638 68.2962 5.93502" fill="white"/>
<path d="M68.2967 5.93477H68.1263C68.1249 7.33187 67.7175 8.41699 66.9069 9.23162L66.9051 9.233L66.9044 9.23438C65.9733 10.2094 64.7765 10.6948 63.2718 10.6968C61.8358 10.6948 60.6338 10.2042 59.6302 9.20961C58.6287 8.21307 58.1335 6.99649 58.1316 5.5194C58.1335 4.04161 58.6287 2.82573 59.6302 1.82988C60.6338 0.834646 61.8358 0.343354 63.2718 0.341283C63.982 0.341283 64.6582 0.480097 65.303 0.756649C65.9486 1.03535 66.4585 1.40056 66.8384 1.85396L66.9689 1.74383L66.8485 1.6232L65.9499 2.52433L66.0703 2.64436L66.2016 2.53515C65.4933 1.68516 64.4992 1.25668 63.2719 1.25921C62.156 1.25783 61.1743 1.65725 60.3623 2.44388C59.5424 3.23305 59.1305 4.27223 59.1319 5.5194C59.1305 6.76665 59.5424 7.80575 60.3623 8.59499C61.1743 9.38163 62.156 9.78096 63.2718 9.77958C64.4511 9.78166 65.4562 9.38094 66.2474 8.5864C66.7758 8.05569 67.0754 7.3206 67.1539 6.40658L67.1698 6.22129H63.4422V5.33273H68.2254V5.16209L68.0576 5.19208C68.1042 5.45084 68.1262 5.69671 68.1262 5.93477H68.467C68.467 5.67539 68.443 5.40881 68.393 5.13157L68.3678 4.99145H63.1016V6.56257H66.9841V6.39193L66.8145 6.37728C66.7393 7.23593 66.4664 7.88252 66.0065 8.34521C65.2745 9.0757 64.3761 9.43623 63.2719 9.4383C62.2358 9.43692 61.3567 9.07961 60.5986 8.34973C59.848 7.62246 59.4746 6.69394 59.4726 5.5194C59.4746 4.34486 59.848 3.41634 60.5986 2.68907C61.3567 1.95919 62.2357 1.60188 63.2719 1.6005C64.424 1.60326 65.2939 1.98449 65.9401 2.75441L66.0599 2.89706L67.0894 1.86455L67.1999 1.75396L67.0993 1.63447C66.6807 1.13467 66.123 0.737936 65.4376 0.443438C64.7508 0.148018 64.026 2.38497e-06 63.2719 2.38497e-06C61.7573 -0.00130139 60.4502 0.531941 59.3901 1.58723C58.3259 2.64044 57.7896 3.96431 57.791 5.5194C57.7896 7.0738 58.3259 8.39843 59.3907 9.45226C60.4502 10.5069 61.7573 11.0395 63.2719 11.0381C64.8492 11.0395 66.1577 10.5148 67.1506 9.47021L67.0274 9.35226L67.1479 9.47297C68.0304 8.5897 68.4682 7.39652 68.4671 5.93477H68.2966M76.1496 1.65786H71.4943V4.90425H75.6925V6.13455H71.4943V9.38094H76.1496V10.6388H70.182V0.40003H76.1496V1.65786" fill="white"/>
<path d="M76.1496 1.65797V1.48732H71.3241V5.07499H75.5221V5.96355L71.324 5.96401V9.55168H75.9792V10.4682H70.3525V0.570773H75.9792V1.65797H76.1496V1.48732V1.65797H76.32V0.229492H70.0117V10.8095H76.32V9.2104H71.6648V6.30529H75.8629V4.73371H71.6648V1.8286H76.32V1.65797H76.1496M81.6887 10.6389H80.3743V1.65789H77.5192V0.400056H84.5438V1.65789H81.6887V10.6388" fill="white"/>
<path d="M81.6884 10.6389V10.4682H80.5444V1.48732H77.6894V0.57085H84.3731V1.48732H81.5181V10.6389H81.6884V10.4682V10.6389H81.8588V1.8286H84.7139V0.229492H77.3486V1.82853H80.2037V10.8094H81.8588V10.6388H81.6884M89.626 10.6389V0.400056H90.9391V10.6388H89.626" fill="white"/>
<path d="M89.6264 10.6389H89.7968V0.570773H90.769V10.4682H89.6264V10.6389H89.7968H89.6264V10.8095H91.1098V0.229492H89.4561V10.8095H89.6264V10.6389M96.7659 10.6389H95.4516V1.65789H92.5966V0.400056H99.621V1.65789H96.7659V10.6388" fill="white"/>
<path d="M96.7654 10.6391V10.4684H95.6214V1.48748H92.7665V0.571002H99.4501V1.48748H96.5951V10.639H96.7654V10.4684V10.639H96.9358V1.82876H99.7909V0.229644H92.4258V1.82868H95.2807V10.8096H96.9358V10.6389H96.7654M106.393 8.45874C107.149 9.22589 108.075 9.60912 109.17 9.60912C110.265 9.60912 111.191 9.22589 111.946 8.45874C112.704 7.69151 113.083 6.71076 113.083 5.51966C113.083 4.32862 112.704 3.34788 111.946 2.58065C111.191 1.81342 110.265 1.43011 109.17 1.43011C108.075 1.43011 107.149 1.81342 106.393 2.58065C105.637 3.34788 105.258 4.32855 105.258 5.51966C105.258 6.71076 105.637 7.69151 106.393 8.45874ZM112.918 9.31585C111.913 10.351 110.663 10.8677 109.17 10.8677C107.675 10.8677 106.426 10.351 105.423 9.31585C104.417 8.28189 103.917 7.01623 103.917 5.51966C103.917 4.02308 104.417 2.75719 105.423 1.72346C106.426 0.688111 107.675 0.170898 109.17 0.170898C110.655 0.170898 111.902 0.690872 112.911 1.73013C113.92 2.76931 114.424 4.03244 114.424 5.51966C114.424 7.01623 113.921 8.28189 112.918 9.31585Z" fill="white"/>
<path d="M106.393 8.45848L106.272 8.57843C107.057 9.37634 108.036 9.78166 109.17 9.77959C110.304 9.78166 111.285 9.37634 112.068 8.57843C112.858 7.77976 113.255 6.74656 113.254 5.5194C113.255 4.29232 112.858 3.25905 112.068 2.46037C111.285 1.66247 110.304 1.25722 109.17 1.25922C108.036 1.25722 107.057 1.66247 106.272 2.46037C105.484 3.25905 105.086 4.29232 105.088 5.5194C105.086 6.74648 105.484 7.77976 106.272 8.57843L106.393 8.45848L106.514 8.33846C105.792 7.60183 105.43 6.67523 105.429 5.5194C105.43 4.36365 105.792 3.43705 106.514 2.70034C107.244 1.96387 108.115 1.60257 109.17 1.60057C110.225 1.60257 111.098 1.96387 111.826 2.70034C112.55 3.43705 112.911 4.36365 112.912 5.5194C112.911 6.67516 112.55 7.60183 111.826 8.33846C111.098 9.07502 110.225 9.43624 109.17 9.43823C108.115 9.43624 107.244 9.07502 106.514 8.33846L106.393 8.45848ZM112.918 9.3156L112.797 9.19703C111.82 10.1996 110.625 10.6948 109.17 10.6968C107.715 10.6948 106.52 10.1996 105.545 9.19703L105.541 9.19167L105.545 9.19703C104.57 8.19106 104.089 6.97794 104.088 5.5194C104.089 4.06087 104.57 2.84775 105.545 1.84185C106.52 0.839249 107.715 0.343357 109.17 0.341363C110.616 0.343357 111.808 0.84132 112.79 1.84913C113.768 2.85971 114.252 4.07091 114.254 5.5194C114.252 6.97794 113.77 8.19106 112.797 9.19703L112.918 9.3156L113.041 9.43417C114.074 8.37175 114.596 7.05386 114.595 5.5194C114.596 3.99368 114.072 2.67849 113.034 1.61131C111.996 0.539919 110.696 -0.00183592 109.17 4.69618e-06C107.637 -0.00183592 106.333 0.537389 105.301 1.60464V1.60387C104.266 2.66706 103.746 3.98494 103.747 5.5194C103.746 7.05386 104.266 8.37175 105.301 9.43486L105.306 9.43969L105.301 9.43417C106.333 10.5014 107.637 11.0395 109.17 11.0381C110.703 11.0395 112.007 10.5014 113.041 9.43417L112.918 9.3156V9.3156ZM116.268 10.6388V0.399955H117.867L122.834 8.365H122.891L122.834 6.39185V0.399955H124.149V10.6387H122.778L117.58 2.28766H117.524L117.58 4.26149V10.6387H116.268" fill="white"/>
<path d="M116.268 10.639H116.438V0.570773H117.772L122.74 8.53582H123.066L123.005 6.3895V0.57085H123.978V10.4682H122.872L117.675 2.1172H117.349L117.41 4.26443V10.4682H116.268V10.6389H116.438H116.268V10.8095H117.75V4.25899L117.694 2.28324L117.523 2.28784V2.45848H117.58V2.28784L117.436 2.37857L122.683 10.8095H124.319V0.229492H122.664V6.39403L122.72 8.36978L122.891 8.36517V8.19453H122.834V8.36517L122.979 8.2746L117.961 0.229492H116.097V10.8095H116.268V10.6389M169.697 39.6487H172.876V18.3159H169.697L169.697 39.6487ZM198.331 26.0005L194.687 35.2493H194.578L190.796 26.0004H187.371L193.043 38.9274L189.809 46.1179H193.126L201.866 26.0004L198.331 26.0005ZM180.302 37.2257C179.26 37.2257 177.808 36.7044 177.808 35.414C177.808 33.7674 179.618 33.1362 181.178 33.1362C182.577 33.1362 183.233 33.4381 184.083 33.8502C183.836 35.8259 182.137 37.2257 180.302 37.2257V37.2257ZM180.686 25.5338C178.384 25.5338 176.001 26.5496 175.014 28.8001L177.835 29.9799C178.439 28.8001 179.561 28.4154 180.74 28.4154C182.384 28.4154 184.056 29.404 184.083 31.1605V31.3798C183.507 31.0504 182.275 30.5565 180.768 30.5565C177.726 30.5565 174.629 32.2302 174.629 35.3592C174.629 38.2136 177.123 40.0526 179.917 40.0526C182.056 40.0526 183.233 39.0921 183.974 37.967H184.083V39.6134H187.151V31.4343C187.151 27.6476 184.33 25.5338 180.686 25.5338V25.5338ZM161.039 28.5973H156.517V21.285H161.039C163.415 21.285 164.765 23.256 164.765 24.9411C164.765 26.5943 163.415 28.5973 161.039 28.5973ZM160.957 18.3159H153.34V39.6487H156.517V31.5664H160.957C164.48 31.5664 167.944 29.0113 167.944 24.9411C167.944 20.871 164.48 18.3159 160.957 18.3159V18.3159ZM119.419 37.2297C117.223 37.2297 115.384 35.3879 115.384 32.8582C115.384 30.302 117.223 28.4321 119.419 28.4321C121.587 28.4321 123.289 30.3019 123.289 32.8582C123.289 35.3879 121.587 37.2297 119.419 37.2297H119.419ZM123.069 27.195H122.959C122.246 26.3429 120.873 25.5732 119.144 25.5732C115.521 25.5732 112.2 28.7621 112.2 32.8582C112.2 36.9271 115.521 40.0887 119.144 40.0887C120.873 40.0887 122.246 39.3187 122.959 38.4395H123.069V39.484C123.069 42.2611 121.587 43.7456 119.199 43.7456C117.251 43.7456 116.043 42.343 115.548 41.1611L112.777 42.3157C113.572 44.2401 115.686 46.6046 119.199 46.6046C122.932 46.6046 126.089 44.4048 126.089 39.0441V26.0131H123.069V27.195ZM128.284 39.6487H131.468V18.3152H128.284V39.6487ZM136.162 32.6109C136.079 29.8065 138.33 28.3774 139.949 28.3774C141.213 28.3774 142.283 29.0093 142.639 29.9173L136.162 32.6109ZM146.043 30.1918C145.439 28.5693 143.6 25.5732 139.839 25.5732C136.107 25.5732 133.005 28.5147 133.005 32.8309C133.005 36.8998 136.079 40.0887 140.196 40.0887C143.518 40.0887 145.44 38.0542 146.235 36.8723L143.765 35.2225C142.942 36.4324 141.816 37.2297 140.196 37.2297C138.577 37.2297 137.424 36.4871 136.683 35.0305L146.371 31.0164L146.043 30.1918ZM68.8509 27.8001V30.8791H76.2066C75.987 32.6109 75.4106 33.8754 74.5322 34.7553C73.4621 35.8278 71.7877 37.0097 68.8508 37.0097C64.3219 37.0097 60.7815 33.3534 60.7815 28.8173C60.7815 24.2812 64.3219 20.6245 68.8509 20.6245C71.2938 20.6245 73.0774 21.5869 74.3951 22.824L76.5634 20.6524C74.7246 18.8925 72.2815 17.5455 68.8509 17.5455C62.6475 17.5455 57.4326 22.6041 57.4326 28.8173C57.4326 35.0305 62.6475 40.0887 68.8509 40.0887C72.1997 40.0887 74.7246 38.9895 76.7005 36.9271C78.7317 34.8926 79.3633 32.0337 79.3633 29.7246C79.3633 29.0093 79.3086 28.3501 79.1981 27.8001H68.8509ZM87.726 37.2297C85.5298 37.2297 83.6358 35.4151 83.6358 32.8309C83.6358 30.2191 85.5298 28.4321 87.726 28.4321C89.9214 28.4321 91.8154 30.2191 91.8154 32.8309C91.8154 35.4152 89.9214 37.2297 87.726 37.2297ZM87.726 25.5732C83.7182 25.5732 80.4519 28.6246 80.4519 32.8309C80.4519 37.0097 83.7182 40.0887 87.726 40.0887C91.733 40.0887 94.9993 37.0097 94.9993 32.8309C94.9993 28.6246 91.733 25.5732 87.726 25.5732ZM103.593 37.2297C101.398 37.2297 99.5034 35.4151 99.5034 32.8309C99.5034 30.2191 101.398 28.4321 103.593 28.4321C105.789 28.4321 107.683 30.2191 107.683 32.8309C107.683 35.4152 105.789 37.2297 103.593 37.2297H103.593ZM103.593 25.5732C99.5854 25.5732 96.3197 28.6246 96.3197 32.8309C96.3197 37.0097 99.5854 40.0887 103.593 40.0887C107.6 40.0887 110.867 37.0097 110.867 32.8309C110.867 28.6246 107.6 25.5732 103.593 25.5732H103.593Z" fill="white"/>
<path d="M5.41302 1.4436C4.84128 1.96027 4.5 2.82207 4.5 3.96601V3.7074V41.4562V41.2075C4.5 42.264 4.79274 43.0798 5.28847 43.6052L5.41502 43.7266V43.7271C5.81627 44.0898 6.3308 44.2823 6.92049 44.2817C7.49668 44.2817 8.14496 44.0978 8.82913 43.7092L33.5587 29.6356L42.0532 24.8008C43.132 24.187 43.7377 23.395 43.8389 22.5884V22.5851C43.7377 21.7766 43.132 20.9853 42.0533 20.3714L33.5581 15.5372L8.82921 1.46354C8.14358 1.07432 7.49484 0.889648 6.91711 0.889648C6.32812 0.889648 5.81428 1.08161 5.41318 1.4436H5.41302Z" fill="#00C1FF"/>
<path d="M5.41509 43.7266L5.28847 43.6052C4.79273 43.0799 4.5 42.264 4.5 41.2075V41.4562V3.71676V3.96601C4.5 2.82207 4.84128 1.96028 5.41302 1.4436L26.5216 22.5858L5.41509 43.7266Z" fill="url(#paint0_linear_1046_371)"/>
<path d="M33.5586 29.6348L26.5215 22.585L33.558 15.5365L42.0531 20.3706C43.1319 20.9846 43.7375 21.7758 43.8388 22.5844V22.5876C43.7375 23.3942 43.1319 24.1862 42.0531 24.8L33.5587 29.6347" fill="url(#paint1_linear_1046_371)"/>
<path d="M6.92133 44.2812C6.33172 44.2818 5.81719 44.0891 5.41602 43.7265V43.726L26.5225 22.5852L33.5597 29.6349L8.82998 43.7087C8.1458 44.0973 7.49752 44.2812 6.92133 44.2812Z" fill="url(#paint2_linear_1046_371)"/>
<path d="M26.5217 22.5859L5.41309 1.44376C5.81434 1.08178 6.32818 0.889814 6.9171 0.889814C7.49482 0.889814 8.14364 1.07441 8.82919 1.4637L33.5582 15.5374L26.5217 22.5859" fill="url(#paint3_linear_1046_371)"/>
<path d="M6.92161 44.5312C6.332 44.5312 5.81678 44.3386 5.41553 43.976L5.41484 43.9766C5.41319 43.975 5.41142 43.9734 5.40955 43.972L5.2998 43.8646C5.29635 43.8613 5.29313 43.8574 5.28906 43.8534L5.4156 43.7267C5.81686 44.0893 6.33131 44.2819 6.92108 44.2812C7.49719 44.2812 8.14547 44.0973 8.82964 43.7087L33.5593 29.6351L33.7177 29.7938L33.5573 29.8851L8.82957 43.958C8.20606 44.312 7.61299 44.4966 7.0773 44.5273C7.02544 44.5299 6.97353 44.5312 6.92161 44.5312" fill="url(#paint4_linear_1046_371)"/>
<path d="M5.28847 43.8535C4.79273 43.3282 4.5 42.5129 4.5 41.4558V41.2072C4.5 42.2636 4.79273 43.0795 5.28847 43.6049L5.41502 43.7262L5.28847 43.8535" fill="url(#paint5_linear_1046_371)"/>
<path d="M33.717 29.7939L33.5586 29.6351L42.053 24.8004C43.1319 24.1867 43.7375 23.3947 43.8387 22.588C43.8387 22.884 43.7728 23.18 43.6418 23.4681C43.3775 24.0486 42.8479 24.5972 42.0531 25.0498L33.717 29.7939" fill="url(#paint6_linear_1046_371)"/>
<path d="M43.8394 22.585C43.7382 21.7764 43.1326 20.9852 42.0538 20.3712L33.5586 15.5371L33.717 15.3783H33.7177L42.0538 20.1225C43.2432 20.7998 43.8387 21.6923 43.8394 22.585" fill="url(#paint7_linear_1046_371)"/>
<path d="M4.5 3.96582V3.70507C4.5 3.61104 4.50253 3.51909 4.50736 3.42982V3.42575C4.50736 3.42453 4.50736 3.42322 4.50782 3.42184V3.41179C4.55913 2.50184 4.84128 1.79205 5.28847 1.31809L5.41302 1.44333C4.84128 1.96008 4.5 2.82188 4.5 3.96582Z" fill="url(#paint8_linear_1046_371)"/>
<path d="M33.5586 15.5371L8.82964 1.46329C8.14409 1.07408 7.49535 0.889479 6.91763 0.889479C6.32863 0.889479 5.81479 1.08144 5.41361 1.44343L5.28906 1.31811C5.32796 1.27687 5.36838 1.23709 5.41024 1.19886C5.41154 1.19748 5.41361 1.19609 5.41491 1.19479C5.81295 0.835563 6.32134 0.643603 6.90505 0.640152H6.91763C7.49535 0.640152 8.14409 0.824827 8.82964 1.21419L33.7177 15.3778L33.717 15.3784L33.5586 15.5371" fill="url(#paint9_linear_1046_371)"/>
</g>
<defs>
<filter id="filter0_d_1046_371" x="0.5" y="0" width="205.366" height="54.6045" filterUnits="userSpaceOnUse" color-interpolation-filters="sRGB">
<feFlood flood-opacity="0" result="BackgroundImageFix"/>
<feColorMatrix in="SourceAlpha" type="matrix" values="0 0 0 0 0 0 0 0 0 0 0 0 0 0 0 0 0 0 127 0" result="hardAlpha"/>
<feOffset dy="4"/>
<feGaussianBlur stdDeviation="2"/>
<feComposite in2="hardAlpha" operator="out"/>
<feColorMatrix type="matrix" values="0 0 0 0 0 0 0 0 0 0 0 0 0 0 0 0 0 0 0.25 0"/>
<feBlend mode="normal" in2="BackgroundImageFix" result="effect1_dropShadow_1046_371"/>
<feBlend mode="normal" in="SourceGraphic" in2="effect1_dropShadow_1046_371" result="shape"/>
</filter>
<linearGradient id="paint0_linear_1046_371" x1="17.9897" y1="3.31789" x2="-0.201205" y2="21.538" gradientUnits="userSpaceOnUse">
<stop stop-color="#00A0FF"/>
<stop offset="0.00657" stop-color="#00A1FF"/>
<stop offset="0.2601" stop-color="#00BEFF"/>
<stop offset="0.5122" stop-color="#00D2FF"/>
<stop offset="0.7604" stop-color="#00DFFF"/>
<stop offset="1" stop-color="#00E3FF"/>
</linearGradient>
<linearGradient id="paint1_linear_1046_371" x1="45.1532" y1="22.4632" x2="3.92864" y2="22.4632" gradientUnits="userSpaceOnUse">
<stop stop-color="#FFE000"/>
<stop offset="0.4087" stop-color="#FFBD00"/>
<stop offset="0.7754" stop-color="#FFA500"/>
<stop offset="1" stop-color="#FF9C00"/>
</linearGradient>
<linearGradient id="paint2_linear_1046_371" x1="29.8236" y1="29.2878" x2="-1.00222" y2="59.9377" gradientUnits="userSpaceOnUse">
<stop stop-color="#FF3A44"/>
<stop offset="1" stop-color="#C31162"/>
</linearGradient>
<linearGradient id="paint3_linear_1046_371" x1="-0.0272034" y1="-1.69066" x2="13.7112" y2="11.9903" gradientUnits="userSpaceOnUse">
<stop stop-color="#32A071"/>
<stop offset="0.0685" stop-color="#2DA771"/>
<stop offset="0.4762" stop-color="#15CF74"/>
<stop offset="0.8009" stop-color="#06E775"/>
<stop offset="1" stop-color="#00F076"/>
</linearGradient>
<linearGradient id="paint4_linear_1046_371" x1="29.8078" y1="34.178" x2="5.12101" y2="58.9048" gradientUnits="userSpaceOnUse">
<stop stop-color="#CC2E36"/>
<stop offset="1" stop-color="#9C0E4E"/>
</linearGradient>
<linearGradient id="paint5_linear_1046_371" x1="7.31198" y1="3.31748" x2="-8.71392" y2="19.3694" gradientUnits="userSpaceOnUse">
<stop stop-color="#008DE0"/>
<stop offset="0.00657" stop-color="#008DE0"/>
<stop offset="0.2601" stop-color="#00A7E0"/>
<stop offset="0.5122" stop-color="#00B8E0"/>
<stop offset="0.7604" stop-color="#00C4E0"/>
<stop offset="1" stop-color="#00C7E0"/>
</linearGradient>
<linearGradient id="paint6_linear_1046_371" x1="45.1532" y1="22.5864" x2="3.92858" y2="22.5864" gradientUnits="userSpaceOnUse">
<stop stop-color="#E0C500"/>
<stop offset="0.4087" stop-color="#E0A600"/>
<stop offset="0.7754" stop-color="#E09100"/>
<stop offset="1" stop-color="#E08900"/>
</linearGradient>
<linearGradient id="paint7_linear_1046_371" x1="45.1539" y1="22.5866" x2="3.9294" y2="22.5866" gradientUnits="userSpaceOnUse">
<stop stop-color="#FFE840"/>
<stop offset="0.4087" stop-color="#FFCE40"/>
<stop offset="0.7754" stop-color="#FFBC40"/>
<stop offset="1" stop-color="#FFB540"/>
</linearGradient>
<linearGradient id="paint8_linear_1046_371" x1="7.29458" y1="3.34669" x2="-8.14118" y2="18.1376" gradientUnits="userSpaceOnUse">
<stop stop-color="#40B8FF"/>
<stop offset="0.00657" stop-color="#40B9FF"/>
<stop offset="0.2601" stop-color="#40CEFF"/>
<stop offset="0.5122" stop-color="#40DDFF"/>
<stop offset="0.7604" stop-color="#40E7FF"/>
<stop offset="1" stop-color="#40EAFF"/>
</linearGradient>
<linearGradient id="paint9_linear_1046_371" x1="-0.0575145" y1="2.78017" x2="10.9663" y2="13.8219" gradientUnits="userSpaceOnUse">
<stop stop-color="#65B895"/>
<stop offset="0.0685" stop-color="#62BD95"/>
<stop offset="0.4762" stop-color="#50DB97"/>
<stop offset="0.8009" stop-color="#44ED98"/>
<stop offset="1" stop-color="#40F498"/>
</linearGradient>
</defs>
</svg>
