<?xml version="1.0" encoding="utf-8"?><svg viewBox="0 0 269 442" xmlns="http://www.w3.org/2000/svg" xmlns:xlink="http://www.w3.org/1999/xlink"><style>:root>svg{display:none}:root>svg:target{display:block}</style><svg viewBox="0 0 186 49" id="apple" xmlns="http://www.w3.org/2000/svg"><path d="M28.063 22.838a9.768 9.768 0 011.2-4.58 9.396 9.396 0 013.192-3.413 9.549 9.549 0 00-3.244-2.985 9.21 9.21 0 00-4.195-1.168c-3.13-.34-6.163 1.934-7.758 1.934-1.626 0-4.081-1.9-6.726-1.845a9.678 9.678 0 00-4.838 1.491 10.095 10.095 0 00-3.498 3.76c-3.604 6.446-.916 15.92 2.537 21.13 1.728 2.55 3.746 5.4 6.388 5.3 2.585-.111 3.55-1.703 6.671-1.703 3.092 0 3.997 1.703 6.693 1.638 2.774-.046 4.521-2.562 6.188-5.138a21.394 21.394 0 002.83-5.953 8.986 8.986 0 01-3.954-3.388 9.423 9.423 0 01-1.486-5.08zM22.972 7.265a9.586 9.586 0 002.077-6.72c-2.31.251-4.445 1.392-5.978 3.195a8.998 8.998 0 00-1.69 3.016 9.196 9.196 0 00-.442 3.455 7.436 7.436 0 003.344-.757 7.683 7.683 0 002.689-2.19zM60.74 36.003h-8.822l-2.118 6.46h-3.737L54.42 18.56h3.882l8.356 23.905h-3.8l-2.117-6.461zm-7.908-2.982h6.993l-3.448-10.486h-.096l-3.45 10.486zm31.87.73c0 5.416-2.806 8.895-7.04 8.895a5.574 5.574 0 01-3.08-.736 5.818 5.818 0 01-2.23-2.313h-.08v8.632h-3.464V25.035h3.353v2.9h.064a6.081 6.081 0 012.274-2.308 5.833 5.833 0 013.098-.774c4.283 0 7.106 3.497 7.106 8.898zm-3.56 0c0-3.529-1.765-5.849-4.458-5.849-2.647 0-4.427 2.369-4.427 5.849 0 3.511 1.78 5.863 4.427 5.863 2.693 0 4.459-2.303 4.459-5.863zm22.132 0c0 5.416-2.806 8.895-7.041 8.895a5.574 5.574 0 01-3.079-.736 5.819 5.819 0 01-2.23-2.313h-.08v8.632H87.38V25.035h3.353v2.9h.063a6.083 6.083 0 012.274-2.308 5.833 5.833 0 013.099-.774c4.283 0 7.105 3.497 7.105 8.898zm-3.56 0c0-3.529-1.765-5.849-4.459-5.849-2.646 0-4.426 2.369-4.426 5.849 0 3.511 1.78 5.863 4.426 5.863 2.694 0 4.46-2.303 4.46-5.863zm15.835 2.053c.257 2.37 2.486 3.927 5.533 3.927 2.919 0 5.02-1.557 5.02-3.695 0-1.855-1.267-2.966-4.267-3.727l-2.999-.747c-4.25-1.06-6.223-3.113-6.223-6.444 0-4.124 3.48-6.957 8.421-6.957 4.891 0 8.244 2.833 8.356 6.957h-3.496c-.209-2.385-2.119-3.825-4.909-3.825-2.79 0-4.699 1.457-4.699 3.577 0 1.69 1.219 2.685 4.202 3.446l2.55.646c4.749 1.16 6.722 3.13 6.722 6.627 0 4.472-3.449 7.273-8.935 7.273-5.133 0-8.598-2.735-8.822-7.059h3.546zm21.686-14.893v4.124h3.208v2.834h-3.208v9.608c0 1.492.642 2.188 2.053 2.188.381-.007.761-.035 1.139-.083v2.816a9.223 9.223 0 01-1.924.165c-3.416 0-4.748-1.325-4.748-4.705v-9.99h-2.454v-2.832h2.454V20.91h3.48zm5.067 12.84c0-5.484 3.127-8.93 8.003-8.93 4.892 0 8.004 3.446 8.004 8.93 0 5.498-3.096 8.929-8.005 8.929-4.906 0-8.002-3.43-8.002-8.93zm12.478 0c0-3.762-1.669-5.982-4.476-5.982-2.806 0-4.473 2.237-4.473 5.982 0 3.776 1.667 5.98 4.473 5.98 2.807 0 4.476-2.204 4.476-5.98zm6.385-8.715h3.303v2.966h.08a4.17 4.17 0 011.488-2.319 3.938 3.938 0 012.571-.83 5.19 5.19 0 011.187.134v3.346a4.702 4.702 0 00-1.557-.216 3.39 3.39 0 00-1.47.268 3.487 3.487 0 00-1.227.879 3.626 3.626 0 00-.759 1.328 3.706 3.706 0 00-.153 1.534v10.338h-3.463V25.036zm24.598 12.309c-.466 3.164-3.449 5.335-7.266 5.335-4.909 0-7.955-3.397-7.955-8.847 0-5.466 3.063-9.012 7.809-9.012 4.669 0 7.604 3.313 7.604 8.597v1.226h-11.917v.216a4.685 4.685 0 00.228 1.895c.205.608.533 1.164.963 1.631.429.467.95.834 1.527 1.077a4.269 4.269 0 001.821.333c.818.08 1.64-.116 2.342-.558a3.916 3.916 0 001.555-1.893h3.289zm-11.709-5.202h8.436a4.302 4.302 0 00-.249-1.695 4.206 4.206 0 00-.885-1.45 4.05 4.05 0 00-1.373-.963 3.945 3.945 0 00-1.632-.315 4.154 4.154 0 00-1.645.33 4.27 4.27 0 00-1.396.957 4.42 4.42 0 00-.931 1.438 4.54 4.54 0 00-.325 1.698zM52.398.566a4.777 4.777 0 012.133.332c.679.272 1.29.697 1.791 1.243.5.546.878 1.2 1.104 1.914a5.24 5.24 0 01.204 2.219c0 3.669-1.92 5.778-5.232 5.778H48.38V.566h4.017zm-2.29 9.862h2.097a3.396 3.396 0 001.52-.257 3.497 3.497 0 001.265-.907c.352-.396.613-.868.766-1.38a3.724 3.724 0 00.116-1.587 3.734 3.734 0 00-.128-1.577 3.652 3.652 0 00-.768-1.37 3.48 3.48 0 00-1.26-.9 3.38 3.38 0 00-1.511-.26h-2.097v8.238zm9.474-2.714c-.053-.57.01-1.144.185-1.687a4.14 4.14 0 01.83-1.466 3.984 3.984 0 011.334-.993 3.868 3.868 0 013.217 0c.507.232.96.57 1.333.993a4.21 4.21 0 011.016 3.153 4.234 4.234 0 01-.183 1.69 4.142 4.142 0 01-.83 1.47 3.985 3.985 0 01-1.334.995 3.869 3.869 0 01-3.221 0 3.983 3.983 0 01-1.335-.996 4.14 4.14 0 01-.83-1.469 4.234 4.234 0 01-.182-1.69zm6.211 0c0-1.879-.817-2.977-2.251-2.977-1.44 0-2.25 1.098-2.25 2.977 0 1.894.81 2.985 2.25 2.985 1.434 0 2.251-1.098 2.251-2.985zm12.226 4.338H76.3l-1.734-6.384h-.131l-1.727 6.384h-1.702l-2.313-8.668h1.68l1.503 6.614H72l1.725-6.614h1.59l1.725 6.614h.13l1.496-6.614h1.657l-2.304 8.668zm4.25-8.668h1.594v1.377h.124A2.57 2.57 0 0185 3.575c.448-.277.97-.402 1.491-.358a2.65 2.65 0 011.2.186c.381.154.724.395 1.003.704.279.31.487.68.608 1.084.122.404.154.831.094 1.25v5.611H87.74V6.87c0-1.393-.587-2.085-1.811-2.085a1.87 1.87 0 00-.812.142 1.95 1.95 0 00-.68.48 2.049 2.049 0 00-.513 1.574v5.071h-1.656V3.384zM92.034 0h1.656v12.052h-1.656V0zm3.958 7.714c-.052-.57.01-1.144.186-1.687a4.139 4.139 0 01.83-1.466 3.984 3.984 0 011.334-.994 3.869 3.869 0 013.217 0c.507.232.961.57 1.334.994.373.423.656.923.831 1.466.174.543.238 1.118.185 1.687a4.238 4.238 0 01-.184 1.69 4.128 4.128 0 01-.83 1.468 3.977 3.977 0 01-1.334.995 3.87 3.87 0 01-3.22 0 3.986 3.986 0 01-1.335-.995 4.14 4.14 0 01-.83-1.468 4.236 4.236 0 01-.184-1.69zm6.212 0c0-1.879-.817-2.977-2.251-2.977-1.44 0-2.25 1.098-2.25 2.977 0 1.894.81 2.985 2.25 2.985 1.434 0 2.251-1.098 2.251-2.985zm3.448 1.887c0-1.56 1.125-2.46 3.122-2.588l2.273-.135V6.13c0-.916-.586-1.433-1.718-1.433-.925 0-1.565.35-1.749.964h-1.604c.169-1.49 1.525-2.444 3.429-2.444 2.104 0 3.291 1.082 3.291 2.913v5.922h-1.595v-1.218h-.131a2.86 2.86 0 01-1.082 1.032c-.443.24-.939.353-1.438.329a2.46 2.46 0 01-1.046-.114 2.517 2.517 0 01-.91-.542 2.612 2.612 0 01-.62-.877 2.702 2.702 0 01-.222-1.061zm5.395-.74v-.726l-2.05.136c-1.155.08-1.679.486-1.679 1.25 0 .78.655 1.234 1.556 1.234a1.93 1.93 0 001.475-.472c.203-.176.369-.393.489-.638a2.09 2.09 0 00.209-.785zm3.826-1.147c0-2.739 1.363-4.474 3.483-4.474a2.696 2.696 0 011.501.374c.456.27.828.667 1.073 1.147h.124V0h1.656v12.052h-1.587v-1.37h-.131a2.96 2.96 0 01-1.114 1.136 2.838 2.838 0 01-1.522.377c-2.135 0-3.483-1.735-3.483-4.48zm1.711 0c0 1.839.839 2.945 2.242 2.945 1.396 0 2.259-1.122 2.259-2.937 0-1.807-.872-2.945-2.259-2.945-1.394 0-2.242 1.114-2.242 2.937zm12.978 0a4.245 4.245 0 01.185-1.687 4.136 4.136 0 01.831-1.466 3.981 3.981 0 011.333-.993 3.871 3.871 0 013.217 0c.507.232.961.57 1.334.993.373.424.655.923.83 1.466.175.543.238 1.118.185 1.687a4.239 4.239 0 01-.182 1.69 4.147 4.147 0 01-.83 1.47 3.986 3.986 0 01-1.334.995 3.872 3.872 0 01-3.222 0 3.977 3.977 0 01-1.334-.996 4.132 4.132 0 01-.83-1.469 4.24 4.24 0 01-.183-1.69zm6.212 0c0-1.879-.817-2.977-2.251-2.977-1.44 0-2.25 1.098-2.25 2.977 0 1.894.81 2.985 2.25 2.985 1.434 0 2.251-1.098 2.251-2.985zm3.926-4.33h1.594v1.377h.124a2.57 2.57 0 011.013-1.186c.449-.277.97-.402 1.491-.358a2.65 2.65 0 011.2.186 2.73 2.73 0 011.003.704c.279.31.487.68.609 1.084.121.404.153.831.093 1.25v5.611h-1.656V6.87c0-1.393-.586-2.085-1.811-2.085a1.87 1.87 0 00-.811.142 1.926 1.926 0 00-.68.48 2.049 2.049 0 00-.513 1.574v5.071H139.7V3.384zm16.486-2.158v2.198h1.818v1.44h-1.818v4.458c0 .908.362 1.305 1.187 1.305.211 0 .421-.014.631-.04v1.426a5.258 5.258 0 01-.901.087c-1.842 0-2.575-.67-2.575-2.34V4.864h-1.332v-1.44h1.332V1.225h1.658zM160.267 0h1.642v4.777h.131c.22-.5.584-.916 1.042-1.194a2.517 2.517 0 011.517-.359c.406-.023.812.047 1.189.205.377.158.716.4.992.709.276.309.483.676.605 1.077.123.4.158.824.104 1.24v5.597h-1.658V6.878c0-1.385-.624-2.086-1.794-2.086a1.903 1.903 0 00-.839.119 1.963 1.963 0 00-.713.472 2.076 2.076 0 00-.561 1.606v5.063h-1.657V0zm16.88 9.712a3.513 3.513 0 01-1.378 1.936 3.322 3.322 0 01-2.259.572 3.706 3.706 0 01-1.61-.321 3.821 3.821 0 01-1.331-.99 3.963 3.963 0 01-.805-1.475 4.065 4.065 0 01-.131-1.689 4.138 4.138 0 01.133-1.693 4.033 4.033 0 01.802-1.483c.366-.43.818-.772 1.325-1.006a3.763 3.763 0 011.61-.346c2.335 0 3.744 1.647 3.744 4.37v.596h-5.926v.096c-.026.318.012.638.113.94.101.302.262.579.472.812.211.234.466.42.75.546.284.126.591.189.9.185a1.95 1.95 0 001.153-.211c.355-.187.649-.48.843-.84h1.595zm-5.826-2.794h4.238a2.152 2.152 0 00-.112-.858 2.113 2.113 0 00-.439-.737 2.028 2.028 0 00-.691-.49 1.964 1.964 0 00-.823-.16 2.083 2.083 0 00-.836.163 2.13 2.13 0 00-.709.486 2.22 2.22 0 00-.471.733 2.273 2.273 0 00-.157.863z"/></svg><svg viewBox="0 0 129 31" id="google" xmlns="http://www.w3.org/2000/svg"><path d="M41.629 4.295c0 .932-.276 1.674-.827 2.227-.627.658-1.444.988-2.448.988-.961 0-1.779-.334-2.45-1.002-.674-.668-1.01-1.496-1.01-2.483 0-.989.336-1.816 1.01-2.484.671-.668 1.489-1.002 2.45-1.002.477 0 .934.094 1.368.28.433.187.781.435 1.041.745l-.585.587c-.441-.528-1.048-.791-1.824-.791a2.53 2.53 0 00-1.819.74c-.512.495-.768 1.136-.768 1.925 0 .789.256 1.43.768 1.924a2.53 2.53 0 001.82.74c.743 0 1.363-.247 1.86-.744.322-.324.508-.774.558-1.352h-2.419v-.801h3.228c.031.174.047.341.047.503"/><path d="M41.628 4.295h-.11c-.002.91-.267 1.618-.795 2.149h-.002v.001c-.607.636-1.387.952-2.367.953-.936 0-1.72-.32-2.373-.969-.653-.65-.976-1.442-.977-2.405.001-.963.324-1.755.977-2.404.654-.648 1.437-.969 2.373-.97.463 0 .903.09 1.324.27.42.182.752.42 1 .716l.085-.072-.078-.079-.586.588.079.078.085-.071c-.462-.554-1.11-.833-1.91-.832-.726 0-1.366.26-1.895.772-.534.515-.803 1.192-.802 2.004 0 .813.268 1.49.802 2.005a2.644 2.644 0 001.896.772c.768.001 1.423-.26 1.939-.778.344-.346.54-.825.59-1.42l.011-.121h-2.43v-.58h3.118v-.11l-.11.02c.03.168.045.328.045.483h.222c0-.169-.015-.343-.048-.523l-.016-.092h-3.432v1.024h2.53v-.11l-.11-.01c-.05.56-.227.98-.527 1.282-.477.476-1.063.71-1.782.712a2.417 2.417 0 01-1.742-.71c-.49-.473-.733-1.078-.734-1.844.001-.765.245-1.37.734-1.844a2.417 2.417 0 011.742-.71c.75.003 1.318.25 1.739.753l.078.093.67-.673.073-.072-.066-.078a2.853 2.853 0 00-1.083-.776 3.54 3.54 0 00-1.411-.29c-.987 0-1.839.347-2.53 1.035-.693.686-1.043 1.55-1.042 2.562 0 1.013.349 1.877 1.043 2.563.69.688 1.542 1.035 2.529 1.034 1.028 0 1.88-.341 2.528-1.022l-.08-.077.078.079c.575-.576.86-1.353.86-2.306h-.112m5.118-2.787h-3.034v2.116h2.736v.801h-2.736v2.116h3.034v.82h-3.89V.688h3.89v.82z"/><path d="M46.746 1.509v-.111H43.6v2.338h2.736v.579H43.6v2.338h3.034v.597h-3.667V.8h3.667v.709h.11v-.111.111h.112v-.93h-4.11v6.894h4.11V6.43h-3.034V4.537h2.736V3.513h-2.736V1.62h3.034v-.11h-.111zm3.61 5.853h-.857V1.509h-1.86v-.82h4.577v.82h-1.86v5.852"/><path d="M50.355 7.362V7.25h-.745V1.398h-1.86V.8h4.355v.597h-1.86V7.36h.11v-.11.11h.111V1.62h1.86V.577h-4.799V1.62h1.86v5.853h1.08V7.36h-.112m5.173 0V.69h.856v6.672h-.856"/><path d="M55.529 7.362h.111V.8h.634v6.45h-.745v.11h.111-.111v.112h.967V.578h-1.078v6.895h.111V7.36m4.652 0h-.856V1.51h-1.86V.69h4.577v.82h-1.86v5.852"/><path d="M60.18 7.36v-.11h-.745V1.396h-1.86V.8h4.355v.597h-1.86v5.964h.11v-.112.112h.111V1.619h1.861V.577h-4.8V1.62h1.86v5.853h1.08V7.36h-.111m6.273-1.421c.493.5 1.097.75 1.81.75.713 0 1.317-.25 1.81-.75.493-.5.74-1.14.74-1.915 0-.777-.247-1.416-.74-1.916a2.442 2.442 0 00-1.81-.75c-.713 0-1.317.25-1.81.75-.492.5-.74 1.14-.74 1.916s.248 1.415.74 1.915zm4.253.558c-.655.675-1.47 1.012-2.443 1.012-.974 0-1.788-.337-2.442-1.012-.655-.673-.981-1.498-.981-2.473 0-.976.326-1.8.981-2.474C66.476.876 67.29.539 68.264.539c.968 0 1.78.339 2.438 1.016.657.677.986 1.5.986 2.47 0 .975-.328 1.8-.981 2.473z"/><path d="M66.455 5.94l-.08.078a2.56 2.56 0 001.89.783 2.554 2.554 0 001.888-.783c.515-.52.773-1.194.773-1.994s-.258-1.472-.773-1.993a2.554 2.554 0 00-1.888-.783 2.556 2.556 0 00-1.89.783c-.513.52-.772 1.194-.77 1.993-.002.8.257 1.473.77 1.994l.08-.078.079-.078c-.471-.48-.707-1.084-.708-1.838.001-.753.237-1.356.708-1.837.475-.48 1.043-.715 1.73-.716.688.001 1.257.236 1.731.716.472.48.707 1.084.708 1.837 0 .754-.236 1.358-.708 1.838-.474.48-1.043.715-1.73.716-.688-.001-1.256-.236-1.731-.716l-.08.078zm4.252.558l-.08-.077c-.636.653-1.414.976-2.362.977-.949 0-1.727-.324-2.363-.977l-.003-.003.003.003c-.635-.655-.949-1.446-.95-2.397.001-.95.315-1.74.95-2.396.636-.653 1.414-.977 2.363-.978.942.001 1.718.326 2.358.983.638.658.953 1.448.954 2.391 0 .951-.315 1.742-.95 2.397l.08.077.08.078c.673-.693 1.013-1.552 1.012-2.552.001-.994-.34-1.85-1.017-2.546C70.106.78 69.26.427 68.266.428c-1-.001-1.85.35-2.522 1.045-.674.693-1.013 1.552-1.012 2.551-.001 1 .338 1.86 1.012 2.552l.003.003-.003-.003c.672.695 1.522 1.046 2.522 1.045.998 0 1.848-.35 2.522-1.045l-.08-.078zm2.183.863V.688h1.041l3.238 5.19h.037l-.037-1.285V.688h.856v6.673h-.893l-3.387-5.442h-.037l.037 1.286V7.36h-.855"/><path d="M72.89 7.362H73V.8h.87l3.237 5.19h.212l-.04-1.399V.801h.635v6.45h-.721l-3.387-5.443h-.212l.04 1.4V7.25h-.745v.111H73h-.11v.112h.965V3.204l-.037-1.288-.11.003v.112h.036v-.112l-.094.06 3.42 5.494h1.066V.578h-1.079v4.017l.037 1.288.111-.003v-.111h-.037v.11l.094-.058-3.27-5.243h-1.214v6.895h.111V7.36m34.818 18.905h2.071V12.364h-2.071v13.902zm18.659-8.894l-2.374 6.027h-.072l-2.464-6.027h-2.232l3.696 8.424-2.107 4.686h2.162l5.695-13.11h-2.304zm-11.748 7.315c-.68 0-1.626-.34-1.626-1.18 0-1.074 1.18-1.485 2.196-1.485.912 0 1.339.197 1.893.465a2.512 2.512 0 01-2.463 2.2zm.25-7.62c-1.5 0-3.053.663-3.696 2.13l1.838.768c.393-.769 1.125-1.02 1.893-1.02 1.072 0 2.161.645 2.178 1.79v.142c-.375-.214-1.178-.536-2.16-.536-1.982 0-4 1.09-4 3.13 0 1.86 1.625 3.058 3.446 3.058 1.393 0 2.16-.626 2.643-1.359h.071v1.073h2v-5.33c0-2.468-1.839-3.845-4.213-3.845zm-12.804 1.997h-2.946V14.3h2.946c1.549 0 2.429 1.285 2.429 2.383 0 1.077-.88 2.382-2.429 2.382zm-.053-6.7h-4.964v13.902h2.07v-5.267h2.894c2.296 0 4.553-1.665 4.553-4.317 0-2.653-2.257-4.318-4.553-4.318zM74.943 24.69c-1.432 0-2.63-1.2-2.63-2.85 0-1.665 1.198-2.883 2.63-2.883 1.413 0 2.522 1.218 2.522 2.884 0 1.648-1.11 2.849-2.522 2.849zm2.378-6.54h-.071c-.465-.555-1.36-1.056-2.487-1.056-2.36 0-4.525 2.078-4.525 4.747 0 2.651 2.165 4.712 4.525 4.712 1.127 0 2.022-.502 2.487-1.075h.071v.68c0 1.81-.965 2.778-2.522 2.778-1.27 0-2.056-.914-2.379-1.684l-1.806.752c.519 1.254 1.896 2.795 4.185 2.795 2.433 0 4.49-1.434 4.49-4.927V17.38h-1.968v.77zm3.399 8.116h2.075V12.364H80.72v13.902zm5.133-4.586c-.054-1.828 1.413-2.76 2.468-2.76.824 0 1.52.413 1.753 1.004l-4.22 1.756zm6.44-1.577c-.394-1.057-1.593-3.01-4.043-3.01-2.433 0-4.454 1.917-4.454 4.73 0 2.652 2.003 4.73 4.686 4.73 2.165 0 3.417-1.326 3.936-2.096l-1.61-1.076c-.536.789-1.27 1.309-2.326 1.309-1.055 0-1.806-.484-2.29-1.434l6.315-2.615-.215-.538zM41.99 18.545v2.006h4.793c-.143 1.129-.519 1.953-1.091 2.526-.697.699-1.789 1.47-3.702 1.47-2.952 0-5.259-2.383-5.259-5.34 0-2.955 2.307-5.338 5.259-5.338 1.592 0 2.754.627 3.612 1.433l1.414-1.415c-1.199-1.147-2.79-2.025-5.026-2.025-4.043 0-7.441 3.297-7.441 7.346 0 4.049 3.398 7.345 7.44 7.345 2.183 0 3.828-.717 5.116-2.06 1.324-1.326 1.735-3.19 1.735-4.694a6.51 6.51 0 00-.108-1.254H41.99zm12.3 6.145c-1.431 0-2.666-1.183-2.666-2.867 0-1.702 1.235-2.866 2.666-2.866 1.43 0 2.665 1.164 2.665 2.866 0 1.684-1.235 2.867-2.665 2.867zm0-7.597c-2.612 0-4.74 1.989-4.74 4.73 0 2.723 2.128 4.73 4.74 4.73 2.61 0 4.74-2.007 4.74-4.73 0-2.741-2.13-4.73-4.74-4.73zm10.34 7.597c-1.431 0-2.665-1.183-2.665-2.867 0-1.702 1.234-2.866 2.665-2.866 1.43 0 2.665 1.164 2.665 2.866 0 1.684-1.235 2.867-2.665 2.867zm0-7.597c-2.612 0-4.74 1.989-4.74 4.73 0 2.723 2.128 4.73 4.74 4.73 2.61 0 4.74-2.007 4.74-4.73 0-2.741-2.13-4.73-4.74-4.73zM.65 1.369c-.373.336-.595.898-.595 1.644v-.169 24.6-.163c0 .689.19 1.22.514 1.563l.082.079c.261.237.597.362.981.362.375 0 .798-.12 1.244-.373L18.99 19.74l5.535-3.15c.704-.4 1.098-.916 1.164-1.442v-.002c-.066-.527-.46-1.043-1.163-1.443l-5.536-3.15L2.876 1.382c-.447-.254-.87-.374-1.246-.374a1.43 1.43 0 00-.98.36z"/><path d="M.651 28.922l-.082-.08c-.324-.341-.514-.873-.514-1.562v.162V2.85v.163c0-.746.222-1.307.595-1.644l13.755 13.777L.651 28.922zM18.991 19.738l-4.586-4.594 4.586-4.593 5.536 3.15c.703.4 1.097.916 1.163 1.443v.002c-.066.526-.46 1.042-1.163 1.442l-5.536 3.15"/><path d="M1.633 29.283c-.384 0-.72-.125-.98-.361l13.754-13.777 4.585 4.594L2.877 28.91c-.446.253-.868.373-1.244.373zM14.406 15.145L.65 1.367c.262-.236.597-.36.98-.36.377 0 .8.12 1.247.373l16.114 9.171-4.585 4.594"/><path d="M1.633 29.445a1.43 1.43 0 01-.981-.361.028.028 0 00-.004-.003l-.072-.07-.007-.007.083-.083c.261.236.597.362.98.361.376 0 .799-.12 1.245-.373l16.115-9.17.103.103-.104.059-16.114 9.17c-.407.231-.793.352-1.142.372a2.145 2.145 0 01-.102.002"/><path d="M.569 29.004c-.324-.342-.514-.874-.514-1.563v-.162c0 .689.19 1.22.514 1.563l.082.079-.082.083zM19.095 19.844l-.104-.104 5.536-3.15c.703-.4 1.097-.916 1.163-1.442 0 .193-.043.386-.128.573-.172.379-.517.736-1.035 1.031l-5.433 3.092M25.69 15.145c-.065-.527-.46-1.043-1.163-1.443l-5.536-3.15.104-.104 5.432 3.092c.775.441 1.163 1.023 1.164 1.605zM.055 3.012v-.17c0-.061.001-.121.004-.18v-.011c.034-.593.218-1.056.51-1.365l.08.082c-.372.337-.594.898-.594 1.644z"/><path d="M18.991 10.553L2.877 1.38c-.447-.253-.87-.373-1.246-.373-.384 0-.72.125-.98.36l-.082-.081c.026-.027.052-.053.08-.078l.002-.003c.26-.234.591-.359.971-.361h.009c.376 0 .799.12 1.246.374l16.218 9.23-.104.104z"/><defs><linearGradient id="ba" x1="8.845" y1="2.589" x2="-3.009" y2="14.463" gradientUnits="userSpaceOnUse"><stop stop-color="#00A0FF"/><stop offset=".007" stop-color="#00A1FF"/><stop offset=".26" stop-color="#00BEFF"/><stop offset=".512" stop-color="#00D2FF"/><stop offset=".76" stop-color="#00DFFF"/><stop offset="1" stop-color="#00E3FF"/></linearGradient><linearGradient id="bb" x1="26.547" y1="15.065" x2="-.318" y2="15.065" gradientUnits="userSpaceOnUse"><stop stop-color="#FFE000"/><stop offset=".409" stop-color="#FFBD00"/><stop offset=".775" stop-color="orange"/><stop offset="1" stop-color="#FF9C00"/></linearGradient><linearGradient id="bc" x1="16.558" y1="19.513" x2="-3.53" y2="39.486" gradientUnits="userSpaceOnUse"><stop stop-color="#FF3A44"/><stop offset="1" stop-color="#C31162"/></linearGradient><linearGradient id="bd" x1="-2.895" y1="-.675" x2="6.058" y2="8.24" gradientUnits="userSpaceOnUse"><stop stop-color="#32A071"/><stop offset=".069" stop-color="#2DA771"/><stop offset=".476" stop-color="#15CF74"/><stop offset=".801" stop-color="#06E775"/><stop offset="1" stop-color="#00F076"/></linearGradient><linearGradient id="be" x1="16.547" y1="22.698" x2=".46" y2="38.812" gradientUnits="userSpaceOnUse"><stop stop-color="#CC2E36"/><stop offset="1" stop-color="#9C0E4E"/></linearGradient><linearGradient id="bf" x1="1.887" y1="2.588" x2="-8.556" y2="13.049" gradientUnits="userSpaceOnUse"><stop stop-color="#008DE0"/><stop offset=".007" stop-color="#008DE0"/><stop offset=".26" stop-color="#00A7E0"/><stop offset=".512" stop-color="#00B8E0"/><stop offset=".76" stop-color="#00C4E0"/><stop offset="1" stop-color="#00C7E0"/></linearGradient><linearGradient id="bg" x1="26.547" y1="15.147" x2="-.317" y2="15.147" gradientUnits="userSpaceOnUse"><stop stop-color="#E0C500"/><stop offset=".409" stop-color="#E0A600"/><stop offset=".775" stop-color="#E09100"/><stop offset="1" stop-color="#E08900"/></linearGradient><linearGradient id="bh" x1="26.547" y1="15.146" x2="-.317" y2="15.146" gradientUnits="userSpaceOnUse"><stop stop-color="#FFE840"/><stop offset=".409" stop-color="#FFCE40"/><stop offset=".775" stop-color="#FFBC40"/><stop offset="1" stop-color="#FFB540"/></linearGradient><linearGradient id="bi" x1="1.876" y1="2.608" x2="-8.183" y2="12.247" gradientUnits="userSpaceOnUse"><stop stop-color="#40B8FF"/><stop offset=".007" stop-color="#40B9FF"/><stop offset=".26" stop-color="#40CEFF"/><stop offset=".512" stop-color="#40DDFF"/><stop offset=".76" stop-color="#40E7FF"/><stop offset="1" stop-color="#40EAFF"/></linearGradient><linearGradient id="bj" x1="-2.915" y1="2.24" x2="4.269" y2="9.435" gradientUnits="userSpaceOnUse"><stop stop-color="#65B895"/><stop offset=".069" stop-color="#62BD95"/><stop offset=".476" stop-color="#50DB97"/><stop offset=".801" stop-color="#44ED98"/><stop offset="1" stop-color="#40F498"/></linearGradient></defs></svg><svg viewBox="0 0 269 442" id="header-bg" xmlns="http://www.w3.org/2000/svg"><path opacity=".15" fill-rule="evenodd" clip-rule="evenodd" d="M170.658.289c-23.377 2.32-40.364 16.45-49.863 41.473-4.385 11.55-4.459 14.186-.423 15.12 1.145.265 1.252.087-1.542 2.548-4.277 3.767-8.732 8.876-11.855 13.593-.922 1.394-1.798 2.687-1.945 2.872-.245.309-.261-.287-.194-6.843.115-11.084.763-16.107 3.502-27.127 1.844-7.417 2.798-10.348 5.42-16.638 3.457-8.295 2.76-11.393-2.95-13.114-10.956-3.301-22.284 6.517-23.71 20.549-1.772 17.451 1.179 46.598 7.074 69.868 1.714 6.763 2.294 7.686 4.837 7.691 2.651.006 3.406-1.54 4.993-10.222 1.41-7.72 6.482-15.76 15.218-24.123 2.782-2.664 2.591-2.573 3.14-1.497 5.183 10.165 17.457 18.483 29.345 19.887 27.638 3.263 60.562-8.952 108.302-40.179 5.058-3.308 5.997-5.032 3.961-7.268-.381-.42-.265-.466.706-.286 4.707.874 5.949-3.96 1.84-7.157C231.339 12.07 196.267-2.253 170.658.289zm11.476 19.767c11.301.791 20.886 3.75 44.037 13.595 15.213 6.47 22.24 9.106 29.075 10.911 2.008.53 1.989.603-.201.736-11.06.67-21.244 4.788-40.219 16.263-16.174 9.78-20.71 12.38-26.864 15.401-26.775 13.144-45.895 10.884-57.548-6.8-1.656-2.513-1.756-2.144 1.095-4.027 7.965-5.26 13.726-7.849 27.949-12.56 10.386-3.44 10.457-3.48 10.479-5.944.028-3.357-2.696-4.257-12.238-4.045-10.23.228-19.817 2.937-28.4 8.024-.959.568-1.743.99-1.743.94 0-.176 2.19-3.216 4.01-5.566 15.153-19.565 31.489-28.264 50.568-26.928zM42.287 64.912C15.837 68.63 1.68 91.285 7.283 120.927c2.133 11.283 5.583 22.475 11.588 37.598 4.388 11.047 5.686 15.555 8.539 29.655 1.57 7.762.506 14.359-3.61 22.358-2.167 4.211-7.152 10.288-20.194 24.617-20.531 22.559-32.373 43.091-34.84 60.409-1.935 13.585-.024 29.439 3.707 30.747 2.888 1.013 4.266-.4 5.114-5.241 3.361-19.192 9.824-34.565 20.49-48.74 6.975-9.27 10.32-12.994 18.026-20.076 26.259-24.127 32.708-34.007 33.755-51.712.769-12.99-1.965-24.116-12.59-51.227-9.973-25.449-11.514-32.447-9.43-42.839 3.258-16.239 18.967-26.414 42.087-27.26 5.836-.215 8.108-3.62 4.323-6.479-7.35-5.555-22.217-9.194-31.96-7.825zm144.176 32.676c-.931.42-1.484 1.123-2.039 2.589-6.89 18.214-11.95 28.588-20.878 42.802-18.27 29.087-21.572 51.425-11.388 77.053 6.456 16.247 12.806 24.367 40.24 51.453 29.555 29.182 37.83 43.457 39.224 67.675 2.636 45.75-38.345 71.018-83.535 51.506-4.302-1.858-6.868-.869-6.721 2.59.062 1.454.136 1.57 2.922 4.62 32.843 35.949 91.072 19.479 103.561-29.292 8.095-31.614 2.433-58.408-17.728-83.891-5.205-6.58-9.671-11.482-21.114-23.18-9.913-10.134-17.243-17.852-21.275-22.404-22.723-25.651-28.089-44.494-19.782-69.46 1.955-5.878 3.943-10.491 9.853-22.868 7.945-16.641 11.054-25.027 12.654-34.133 1.001-5.695 1.356-12.222.73-13.434-.89-1.727-2.938-2.432-4.724-1.626zM154.39 262.084c-2.909.802-16.646 15.135-18.882 19.702-1.538 3.14-.865 4.247 6.585 10.83 7.275 6.429 8.137 6.87 11.198 5.731 3.182-1.183 3.687-2.731 3.253-9.984-.379-6.345-.394-6.211 1.525-14.544.976-4.242 1.62-7.403 1.618-7.942-.011-2.624-2.66-4.521-5.297-3.793zm-86.111 5.699c-4.532 1.306-4.387 3.372.954 13.672 5.065 9.766 4.976 9.552 6.486 15.715 1.849 7.544 2.72 8.706 6.525 8.7 3.15-.005 3.494-.343 8.424-8.277 6.567-10.571 6.6-10.356-2.814-18.172-5.404-4.487-15.105-11.108-17.067-11.65-.737-.203-1.778-.198-2.509.012zm57.314 51.038c-2.512.56-3.059 2.413-1.956 6.623 11.534 44.042-2.44 78.045-36.888 89.752-43.327 14.724-85.17-7.275-105.994-55.728-1.258-2.927-1.976-3.58-3.928-3.575-3.103.009-3.889 1.827-3.065 7.093 9.185 58.7 62.733 91.838 120.129 74.343 47.6-14.511 60.765-54.713 37.126-113.372-1.918-4.759-2.909-5.698-5.424-5.136z"/></svg><svg viewBox="0 0 54 60" id="offer1" xmlns="http://www.w3.org/2000/svg"><g clip-path="url(#da)"><path d="M43.365 16.915c0 9.34-7.34 16.912-16.395 16.912-9.054 0-16.394-7.572-16.394-16.912S17.916.003 26.971.003c9.054 0 16.394 7.572 16.394 16.912z"/><path d="M40.362 31.02c-3.38 3.64-8.131 5.914-13.392 5.914-5.26 0-10.012-2.273-13.391-5.913C5.472 34.05.006 40.064.006 48.578c0 12.659 12.072 11.35 26.964 11.35s26.964 1.309 26.964-11.35c0-8.513-5.466-14.529-13.572-17.559zM32.65 48.879c0 .4-.314.725-.702.725H28.61v3.443c0 .4-.314.725-.703.725h-1.874a.714.714 0 01-.703-.725v-3.443h-3.337a.714.714 0 01-.703-.725v-1.933c0-.401.315-.725.703-.725h3.338v-3.443c0-.4.314-.725.702-.725h1.874c.388 0 .703.325.703.725v3.443h3.338c.388 0 .703.324.703.725v1.933z"/></g><defs><clipPath id="da"><path d="M0 0h54v60H0z"/></clipPath></defs></svg><svg viewBox="0 0 56 56" id="offer2" xmlns="http://www.w3.org/2000/svg"><g clip-path="url(#ea)"><path d="M27.967.076c-7.464 0-14.482 2.906-19.76 8.185C2.93 13.538.023 20.555.023 28.019c0 7.464 2.907 14.482 8.187 19.758 5.276 5.278 12.294 8.185 19.757 8.185 7.463 0 14.48-2.907 19.758-8.184C53.004 42.5 55.91 35.482 55.91 28.02c0-7.464-2.907-14.481-8.186-19.759C42.448 2.982 35.43.076 27.967.076zm-3.825 44.1c2.262 2.263 4.26 4.551 6.918 5.771-1.018.142-2.046.24-3.093.24-5.075 0-9.88-1.705-13.788-4.824a29.723 29.723 0 01-1.857-1.7c-.007.014-.01.027-.016.043l-.014-.012A22.022 22.022 0 015.798 28.02a22.018 22.018 0 016.492-15.674 22.027 22.027 0 0115.676-6.494c2.057 0 4.065.296 5.993.834-3.476 1.193-7.197 3.6-9.819 6.22-8.635 8.636-8.635 22.636.002 31.273v-.001z"/></g><defs><clipPath id="ea"><path d="M0 0h56v56H0z"/></clipPath></defs></svg><svg viewBox="0 0 59 56" id="offer3" xmlns="http://www.w3.org/2000/svg"><g clip-path="url(#fa)"><path d="M11.566 2.675c0-3.529 5.208-3.529 5.208 0v10.213c0 3.529-5.208 3.529-5.208 0V2.676zm35.708 0c0-3.529-5.208-3.529-5.208 0v10.213c0 3.529 5.208 3.529 5.208 0V2.676z"/><path fill-rule="evenodd" clip-rule="evenodd" d="M58.989 24.96v21.542c0 5.2-4.277 9.472-9.484 9.472H9.52c-5.207 0-9.484-4.271-9.484-9.471V24.96H58.99zM9.521 7.875v5.014c0 6.129 9.299 6.129 9.299 0V7.875h21.2v5.014c0 6.315 9.484 6.315 9.484 0V7.875c5.207 0 9.484 4.271 9.484 9.471v5.015H.036v-5.015c0-5.385 4.277-9.471 9.484-9.471h.001z"/></g><defs><clipPath id="fa"><path d="M0 0h59v56H0z"/></clipPath></defs></svg><svg viewBox="0 0 67 55" id="offer4" xmlns="http://www.w3.org/2000/svg"><g clip-path="url(#ga)"><path d="M54.133 11.81l-2.065-7.737A5.43 5.43 0 0045.414.221L4.063 11.33c-2.898.78-4.619 3.767-3.844 6.675l7.385 27.623c.335 1.268 1.112 2.294 2.1 2.997V20.888c0-5.007 4.057-9.078 9.048-9.078h35.381z"/><path d="M61.565 15.44H18.753c-2.998 0-5.429 2.44-5.429 5.449v28.596c0 3.01 2.431 5.448 5.43 5.448h42.81c3 0 5.434-2.438 5.434-5.448V20.889c0-3.01-2.433-5.449-5.433-5.449zM37.057 44.355h-16.46v-6.399a3.413 3.413 0 013.408-3.415h1.339c-1.271-1.025-2.102-2.58-2.102-4.342a5.59 5.59 0 015.586-5.601 5.59 5.59 0 015.586 5.601c0 1.764-.83 3.319-2.1 4.342h1.337a3.413 3.413 0 013.408 3.415v6.4h-.002zm16.394.033H42.64v-3.63h10.81v3.63zm6.776-8.03H42.64v-3.63h17.588v3.63zm0-8.03H42.64v-3.63h17.588v3.63z"/></g><defs><clipPath id="ga"><path d="M0 0h67v55H0z"/></clipPath></defs></svg><svg viewBox="0 0 58 52" id="offer5" xmlns="http://www.w3.org/2000/svg"><g clip-path="url(#ha)"><path d="M55.72 9.527H45.442v-7.27c0-.579-.234-1.133-.65-1.543a2.24 2.24 0 00-1.569-.639H7.071a7.086 7.086 0 00-4.966 2.023A6.852 6.852 0 00.048 6.983v38.1c0 1.831.74 3.588 2.057 4.884a7.084 7.084 0 004.966 2.023H55.72c.588 0 1.153-.23 1.568-.639.416-.409.65-.964.65-1.542v-38.1c0-.578-.234-1.133-.65-1.542-.415-.41-.98-.64-1.568-.64zM4.41 6.983c0-.675.273-1.322.758-1.8a2.61 2.61 0 011.83-.745h34.009v5.09H7.072a2.61 2.61 0 01-1.878-.72 2.525 2.525 0 01-.784-1.825zM43.742 35.34a5.22 5.22 0 01-3.66-1.491 5.048 5.048 0 01-1.515-3.599c0-1.35.545-2.644 1.516-3.599a5.219 5.219 0 013.659-1.49 5.22 5.22 0 013.66 1.49 5.047 5.047 0 011.515 3.599c0 1.35-.545 2.644-1.516 3.599a5.219 5.219 0 01-3.659 1.49z"/></g><defs><clipPath id="ha"><path d="M0 0h58v52H0z"/></clipPath></defs></svg></svg>