<?xml version="1.0" encoding="utf-8"?><svg viewBox="0 0 69 65" xmlns="http://www.w3.org/2000/svg" xmlns:xlink="http://www.w3.org/1999/xlink"><style>:root>svg{display:none}:root>svg:target{display:block}</style><svg viewBox="0 0 69 65" id="consultation1" xmlns="http://www.w3.org/2000/svg"><path fill-rule="evenodd" clip-rule="evenodd" d="M18.45.18c1.03-.504 1.866.142 1.866 1.447V53.49c0 1.303-.83 2.765-1.866 3.272L1.956 64.828c-1.031.505-1.867-.142-1.867-1.446V11.519c0-1.303.83-2.765 1.867-3.272L18.45.18zM66.995.171c1.031-.504 1.867.142 1.867 1.447V53.48c0 1.302-.83 2.765-1.867 3.271L50.501 64.82c-1.03.504-1.866-.142-1.866-1.447V11.51c0-1.303.83-2.765 1.866-3.272L66.995.17zm-40.767 0c-1.03-.504-1.866.142-1.866 1.447V53.48c0 1.302.83 2.765 1.866 3.271l16.495 8.068c1.03.504 1.866-.142 1.866-1.447V11.51c0-1.303-.83-2.765-1.866-3.272L26.228.17z"/></svg><svg viewBox="0 0 54 60" id="offer1" xmlns="http://www.w3.org/2000/svg"><g clip-path="url(#ba)"><path d="M43.365 16.915c0 9.34-7.34 16.912-16.395 16.912-9.054 0-16.394-7.572-16.394-16.912S17.916.003 26.971.003c9.054 0 16.394 7.572 16.394 16.912z"/><path d="M40.362 31.02c-3.38 3.64-8.131 5.914-13.392 5.914-5.26 0-10.012-2.273-13.391-5.913C5.472 34.05.006 40.064.006 48.578c0 12.659 12.072 11.35 26.964 11.35s26.964 1.309 26.964-11.35c0-8.513-5.466-14.529-13.572-17.559zM32.65 48.879c0 .4-.314.725-.702.725H28.61v3.443c0 .4-.314.725-.703.725h-1.874a.714.714 0 01-.703-.725v-3.443h-3.337a.714.714 0 01-.703-.725v-1.933c0-.401.315-.725.703-.725h3.338v-3.443c0-.4.314-.725.702-.725h1.874c.388 0 .703.325.703.725v3.443h3.338c.388 0 .703.324.703.725v1.933z"/></g><defs><clipPath id="ba"><path d="M0 0h54v60H0z"/></clipPath></defs></svg><svg viewBox="0 0 56 56" id="offer2" xmlns="http://www.w3.org/2000/svg"><g clip-path="url(#ca)"><path d="M27.967.076c-7.464 0-14.482 2.906-19.76 8.185C2.93 13.538.023 20.555.023 28.019c0 7.464 2.907 14.482 8.187 19.758 5.276 5.278 12.294 8.185 19.757 8.185 7.463 0 14.48-2.907 19.758-8.184C53.004 42.5 55.91 35.482 55.91 28.02c0-7.464-2.907-14.481-8.186-19.759C42.448 2.982 35.43.076 27.967.076zm-3.825 44.1c2.262 2.263 4.26 4.551 6.918 5.771-1.018.142-2.046.24-3.093.24-5.075 0-9.88-1.705-13.788-4.824a29.723 29.723 0 01-1.857-1.7c-.007.014-.01.027-.016.043l-.014-.012A22.022 22.022 0 015.798 28.02a22.018 22.018 0 016.492-15.674 22.027 22.027 0 0115.676-6.494c2.057 0 4.065.296 5.993.834-3.476 1.193-7.197 3.6-9.819 6.22-8.635 8.636-8.635 22.636.002 31.273v-.001z"/></g><defs><clipPath id="ca"><path d="M0 0h56v56H0z"/></clipPath></defs></svg><svg viewBox="0 0 59 56" id="offer3" xmlns="http://www.w3.org/2000/svg"><g clip-path="url(#da)"><path d="M11.566 2.675c0-3.529 5.208-3.529 5.208 0v10.213c0 3.529-5.208 3.529-5.208 0V2.676zm35.708 0c0-3.529-5.208-3.529-5.208 0v10.213c0 3.529 5.208 3.529 5.208 0V2.676z"/><path fill-rule="evenodd" clip-rule="evenodd" d="M58.989 24.96v21.542c0 5.2-4.277 9.472-9.484 9.472H9.52c-5.207 0-9.484-4.271-9.484-9.471V24.96H58.99zM9.521 7.875v5.014c0 6.129 9.299 6.129 9.299 0V7.875h21.2v5.014c0 6.315 9.484 6.315 9.484 0V7.875c5.207 0 9.484 4.271 9.484 9.471v5.015H.036v-5.015c0-5.385 4.277-9.471 9.484-9.471h.001z"/></g><defs><clipPath id="da"><path d="M0 0h59v56H0z"/></clipPath></defs></svg><svg viewBox="0 0 67 55" id="offer4" xmlns="http://www.w3.org/2000/svg"><g clip-path="url(#ea)"><path d="M54.133 11.81l-2.065-7.737A5.43 5.43 0 0045.414.221L4.063 11.33c-2.898.78-4.619 3.767-3.844 6.675l7.385 27.623c.335 1.268 1.112 2.294 2.1 2.997V20.888c0-5.007 4.057-9.078 9.048-9.078h35.381z"/><path d="M61.565 15.44H18.753c-2.998 0-5.429 2.44-5.429 5.449v28.596c0 3.01 2.431 5.448 5.43 5.448h42.81c3 0 5.434-2.438 5.434-5.448V20.889c0-3.01-2.433-5.449-5.433-5.449zM37.057 44.355h-16.46v-6.399a3.413 3.413 0 013.408-3.415h1.339c-1.271-1.025-2.102-2.58-2.102-4.342a5.59 5.59 0 015.586-5.601 5.59 5.59 0 015.586 5.601c0 1.764-.83 3.319-2.1 4.342h1.337a3.413 3.413 0 013.408 3.415v6.4h-.002zm16.394.033H42.64v-3.63h10.81v3.63zm6.776-8.03H42.64v-3.63h17.588v3.63zm0-8.03H42.64v-3.63h17.588v3.63z"/></g><defs><clipPath id="ea"><path d="M0 0h67v55H0z"/></clipPath></defs></svg><svg viewBox="0 0 58 52" id="offer5" xmlns="http://www.w3.org/2000/svg"><g clip-path="url(#fa)"><path d="M55.72 9.527H45.442v-7.27c0-.579-.234-1.133-.65-1.543a2.24 2.24 0 00-1.569-.639H7.071a7.086 7.086 0 00-4.966 2.023A6.852 6.852 0 00.048 6.983v38.1c0 1.831.74 3.588 2.057 4.884a7.084 7.084 0 004.966 2.023H55.72c.588 0 1.153-.23 1.568-.639.416-.409.65-.964.65-1.542v-38.1c0-.578-.234-1.133-.65-1.542-.415-.41-.98-.64-1.568-.64zM4.41 6.983c0-.675.273-1.322.758-1.8a2.61 2.61 0 011.83-.745h34.009v5.09H7.072a2.61 2.61 0 01-1.878-.72 2.525 2.525 0 01-.784-1.825zM43.742 35.34a5.22 5.22 0 01-3.66-1.491 5.048 5.048 0 01-1.515-3.599c0-1.35.545-2.644 1.516-3.599a5.219 5.219 0 013.659-1.49 5.22 5.22 0 013.66 1.49 5.047 5.047 0 011.515 3.599c0 1.35-.545 2.644-1.516 3.599a5.219 5.219 0 01-3.659 1.49z"/></g><defs><clipPath id="fa"><path d="M0 0h58v52H0z"/></clipPath></defs></svg></svg>